<svg xmlns="http://www.w3.org/2000/svg" width="119.058" height="344.945"><defs><linearGradient id="a" x1=".5" x2=".5" y2="1" gradientUnits="objectBoundingBox"><stop offset="0" stop-color="#7871f7"/><stop offset="1" stop-color="#641eaa"/></linearGradient><linearGradient id="c" x1=".022" y1="1" x2=".954" y2="-.079" gradientUnits="objectBoundingBox"><stop offset="0" stop-color="#37fdd6"/><stop offset="1" stop-color="#7871f7"/></linearGradient><clipPath id="b"><path data-name="Path 16382" d="M1601.263 0v344.948h4.564l.035-.217.109-1.141.851-.462.638-.7.876-.5.163-1.111 1.1-.211.346-1.121.669-.652-.326-1.06-.626-.894-.754-.931.473-1.173.018-.851-.243-.958.513-.982.332-.857.21-.911.444-.822.491-.8.593-.579-.049-.955-.4-.848v-1.092l.877-.753.105-1.026-.11-1.084-.222-1.035.019-1.111.161-1.085.547-.9.584-.871-.048-1.1.826-1-.136-1.127-.347-1.255 1-.585.959-.392.923-.439.744-.668.71-.711.872-.513.647-.787.8-.608.518-.914.823-.608-.03-1 .407-.792.461-.755.746-.656-.043-1.032.987-.534.328-.851.32-.965.128-.966.289-.908.121-.981-.5-1.53.809-.813.662-.721.727-.657.92-.363.481-.886.833-.434.629-.666.9-.581.272-.968.214-.725.419-.727.4-.979-.19-1.032.171-.858.439-.7.131-.944.549-.864.75-.66.818-1.044.6-.84-.249-1.119.676-.827-.3-1.147.728-.721.808-.618.035-1.029.488-.791.1-.93.277-.8-.073-1.182-.6-1.1-.267-1.065-.362-1 .133-1.046-.19-.788.067-.842-.352-1.284 1.065-.73.505-1.017.362-1 .054-1.069.178-1.05.181-.957-.265-.949-.358-.881-.869-.782.108-1.126-.913-.763.032-1.1.8-.859.031-1.219.675-1.033.758-.514.643-.669.523-.813 1.074-.194.726-.555.956-.282.366-.991.546-.713.4-.808.841-.631.573-.738 1.053-.528.725-.964.082-1.182.513-.815.339-1 .576-.6.612-.6.835-.592.775-.685.949-.617.344-1.033.57-.91.1-1.08.485-.971-.393-1.442.852-.895.1-1.05-.373-1.151.97-.848.25-1 .023-1.093.5-.923.623-.887-.4-1.122.205-1.138.9-.933.21-1.024-.305-1.066.021-.948.061-.976-.194-1.137.216-1.16.454-1.12.867-1.046-.392-1.122.423-1.04-.187-1.095.431-1.083-.347-1.151.506-1.13-.006-1 .249-.965.072-.988.426-.9-.281-1.093-.1-.988.555-1.017-.02-.975.047-.618.01-1.007.154-.988.3-.95.639-.811-.056-1.122.559-.846.661-.772.316-.97.406-.938.7-.614-.1-.963.209-.794.737-.772-.173-1 .456-.787.682-.79.344-.9.231-1.153.613-.922.406-1.021.32-.922.631-1.016-.118-1.028v-1.064l.6-.871.909-.657-.177-1.107.491-.847.751-.623.823-.465.82-.41.972-.633.564-1.023.673-.874.521-.718.555-.759-.213-.988.617-.83.09-1.011-.072-1 .426-1-.412-.963-.379-1.112.756-1.071.256-1.021-.517-1.287.71-1.2-.269-.989-.644-1.04.412-1.042-.235-1.076.807-.985-.234-1.074-.158-1.047.026-1.164.72-.913.831-.705.483-.7.268-.78.474-.694.375-.837.948-.6.243-1.109.519-1 .662-.961-.306-1.124.028-1.148-.3-1.267.276-.949-.4-.907-.549-.771.1-1.133-.675-.715-.86-.145.137-.955.225-.623-.071-1.173.589-.813.805-.758.1-1.037-.235-1.061.648-.924-.184-1.01.539-.971.432-1.138 1.011-.492.99-.559.536-1.01.762-.632.61-.716.405-.891.466-.88.863-.484.811-.507.769-.55.653-.772.659-.813-.214-1.063.254-.976-.373-.892-.149-.955.613-.82-.358-1.071.941-.487.011-.924.394-.739-.378-.752.28-.5-.127-.778-.053-1.115 1.194-.69.7-.656.248-.918-.006-1.006.921-.565.424-.907-.121-.823.116-.766.119-1.2 1.149-.51.35-1.05.43-1 .91-.664.4-1.04 1.063-.318.983-.552.516-1 .224-1.112.629-.855.552-.774.606-.705.605-.728.821-.479.9-.317 1.051-.313.185-.8.088-.845.692-.59.344-.786.846-.45.44-.844.8-.731-.224-1.026.068-.992-.361-.907-.614-1.013 1.138-.476.508-.474.415-1.08.727-.88-.3-1.136-.3-.955-.211-1.476.3-.939.187-1.033-.744-.855.12-1.256.29-1.161.559-.763.431-.82.065-.955.634-.808-.107-1.048-.3-1.013.179-1-.373-1 .437-1.021.637-.8.832-.94.062-1.332-.739-.852.219-1.015.559-.874.253-.924.161-.816.46-.824-.912-.955-.192-1.058-.742-.821-.368-.995-.48-.948-.733-.787.125-1.206.721-.778.871-.621.432-.976.493-.795-.034-1.164 1-.688.138-1.129.96-.775.053-1.2-.44-1.059-.677-.937.337-1.133-.308-.942.33-.963-.616-.931-.219-.922-.145-.913-.277-.872-.079-.963.26-.51.519-.788.487-.874.659-.712.98-.443-.063-1.1.7-.749.263-.908-.168-.988.511-.952-.319-1.091 1.171-.3.637-.762.521-.886.7-.714.356-.974-.228-1.018-.468-.868-.011-1.15.1-.571Z" transform="translate(-1601.263 -.003)" fill="url(#a)"/></clipPath></defs><g data-name="Group 7771"><path data-name="Path 16381" d="M1601.263 0v344.948h4.564l.035-.217.109-1.141.851-.462.638-.7.876-.5.163-1.111 1.1-.211.346-1.121.669-.652-.326-1.06-.626-.894-.754-.931.473-1.173.018-.851-.243-.958.513-.982.332-.857.21-.911.444-.822.491-.8.593-.579-.049-.955-.4-.848v-1.092l.877-.753.105-1.026-.11-1.084-.222-1.035.019-1.111.161-1.085.547-.9.584-.871-.048-1.1.826-1-.136-1.127-.347-1.255 1-.585.959-.392.923-.439.744-.668.71-.711.872-.513.647-.787.8-.608.518-.914.823-.608-.03-1 .407-.792.461-.755.746-.656-.043-1.032.987-.534.328-.851.32-.965.128-.966.289-.908.121-.981-.5-1.53.809-.813.662-.721.727-.657.92-.363.481-.886.833-.434.629-.666.9-.581.272-.968.214-.725.419-.727.4-.979-.19-1.032.171-.858.439-.7.131-.944.549-.864.75-.66.818-1.044.6-.84-.249-1.119.676-.827-.3-1.147.728-.721.808-.618.035-1.029.488-.791.1-.93.277-.8-.073-1.182-.6-1.1-.267-1.065-.362-1 .133-1.046-.19-.788.067-.842-.352-1.284 1.065-.73.505-1.017.362-1 .054-1.069.178-1.05.181-.957-.265-.949-.358-.881-.869-.782.108-1.126-.913-.763.032-1.1.8-.859.031-1.219.675-1.033.758-.514.643-.669.523-.813 1.074-.194.726-.555.956-.282.366-.991.546-.713.4-.808.841-.631.573-.738 1.053-.528.725-.964.082-1.182.513-.815.339-1 .576-.6.612-.6.835-.592.775-.685.949-.617.344-1.033.57-.91.1-1.08.485-.971-.393-1.442.852-.895.1-1.05-.373-1.151.97-.848.25-1 .023-1.093.5-.923.623-.887-.4-1.122.205-1.138.9-.933.21-1.024-.305-1.066.021-.948.061-.976-.194-1.137.216-1.16.454-1.12.867-1.046-.392-1.122.423-1.04-.187-1.095.431-1.083-.347-1.151.506-1.13-.006-1 .249-.965.072-.988.426-.9-.281-1.093-.1-.988.555-1.017-.02-.975.047-.618.01-1.007.154-.988.3-.95.639-.811-.056-1.122.559-.846.661-.772.316-.97.406-.938.7-.614-.1-.963.209-.794.737-.772-.173-1 .456-.787.682-.79.344-.9.231-1.153.613-.922.406-1.021.32-.922.631-1.016-.118-1.028v-1.064l.6-.871.909-.657-.177-1.107.491-.847.751-.623.823-.465.82-.41.972-.633.564-1.023.673-.874.521-.718.555-.759-.213-.988.617-.83.09-1.011-.072-1 .426-1-.412-.963-.379-1.112.756-1.071.256-1.021-.517-1.287.71-1.2-.269-.989-.644-1.04.412-1.042-.235-1.076.807-.985-.234-1.074-.158-1.047.026-1.164.72-.913.831-.705.483-.7.268-.78.474-.694.375-.837.948-.6.243-1.109.519-1 .662-.961-.306-1.124.028-1.148-.3-1.267.276-.949-.4-.907-.549-.771.1-1.133-.675-.715-.86-.145.137-.955.225-.623-.071-1.173.589-.813.805-.758.1-1.037-.235-1.061.648-.924-.184-1.01.539-.971.432-1.138 1.011-.492.99-.559.536-1.01.762-.632.61-.716.405-.891.466-.88.863-.484.811-.507.769-.55.653-.772.659-.813-.214-1.063.254-.976-.373-.892-.149-.955.613-.82-.358-1.071.941-.487.011-.924.394-.739-.378-.752.28-.5-.127-.778-.053-1.115 1.194-.69.7-.656.248-.918-.006-1.006.921-.565.424-.907-.121-.823.116-.766.119-1.2 1.149-.51.35-1.05.43-1 .91-.664.4-1.04 1.063-.318.983-.552.516-1 .224-1.112.629-.855.552-.774.606-.705.605-.728.821-.479.9-.317 1.051-.313.185-.8.088-.845.692-.59.344-.786.846-.45.44-.844.8-.731-.224-1.026.068-.992-.361-.907-.614-1.013 1.138-.476.508-.474.415-1.08.727-.88-.3-1.136-.3-.955-.211-1.476.3-.939.187-1.033-.744-.855.12-1.256.29-1.161.559-.763.431-.82.065-.955.634-.808-.107-1.048-.3-1.013.179-1-.373-1 .437-1.021.637-.8.832-.94.062-1.332-.739-.852.219-1.015.559-.874.253-.924.161-.816.46-.824-.912-.955-.192-1.058-.742-.821-.368-.995-.48-.948-.733-.787.125-1.206.721-.778.871-.621.432-.976.493-.795-.034-1.164 1-.688.138-1.129.96-.775.053-1.2-.44-1.059-.677-.937.337-1.133-.308-.942.33-.963-.616-.931-.219-.922-.145-.913-.277-.872-.079-.963.26-.51.519-.788.487-.874.659-.712.98-.443-.063-1.1.7-.749.263-.908-.168-.988.511-.952-.319-1.091 1.171-.3.637-.762.521-.886.7-.714.356-.974-.228-1.018-.468-.868-.011-1.15.1-.571Z" transform="translate(-1601.263 -.003)" fill="url(#a)"/><g data-name="Mask Group 551" clip-path="url(#b)"><path data-name="Union 118" d="M.331 344.945H0V320.4l10.476 7.611v.005l-.592.579-.492.8-.444.822-.21.911-.332.856-.513.982.244.958-.018.85-.474 1.173.754.93.626.894.326 1.059-.669.652-.346 1.118-1.1.211-.164 1.111-.876.5-.638.7-.851.462-.107 1.144-.035.217ZM0 292.966v-54.423l34.978 25.413.315 1.151-.067.842.191.788-.132 1.046.362 1 .267 1.065.6 1.1.073 1.182-.278.8-.1.93-.488.791-.035 1.029-.808.619-.728.721.3 1.148-.676.826.249 1.12-.6.841L32.6 282l-.75.66-.549.865-.131.944-.438.7-.171.858.189 1.032-.4.979-.419.727-.214.725-.272.968-.9.581-.63.666-.833.434-.481.886-.92.364-.726.657-.662.721-.809.814.5 1.53-.121.981-.289.907-.128.966-.32.965-.328.851-.987.534.044 1.032-.747.657-.461.755-.408.793.03 1-.788.582Zm0-81.855v-54.423L57.416 198.4l.246.957-.426.9-.072.987-.249.965.006 1-.506 1.13.347 1.151-.43 1.083.187 1.095-.423 1.04.392 1.122-.867 1.046-.454 1.124-.216 1.16.194 1.137-.061.976-.022.949.305 1.066-.21 1.023-.9.933-.205 1.138.4 1.122-.623.887-.5.923-.029 1.096-.25 1-.97.848.373 1.151-.1 1.05-.852.894.399 1.447-.485.97-.1 1.08-.571.91-.344 1.033-.949.617-.775.685-.835.592-.611.595-.577.6-.339 1-.513.814-.082 1.182-.725.964-1.053.528-.327.421Zm0-81.855V74.833L79.37 132.5l.136.572-.028 1.147.306 1.124-.662.961-.519 1-.244 1.109-.947.6-.375.836-.474.694-.267.78-.484.7-.831.705-.72.913-.026 1.164.158 1.047.234 1.074-.807.985.235 1.075-.411 1.042.644 1.04.269.989-.71 1.2.517 1.287-.256 1.021-.756 1.071.379 1.112.411.963-.425 1 .072 1-.09 1.012-.617.83.213.988-.555.759-.52.718-.672.875-.564 1.023-.972.632-.82.41-.824.465-.75.623-.491.847.178 1.107-.909.657-.6.871v1.065l.119 1.028-.632 1.016-.3.852ZM0 47.4V0h9.665l97.671 70.962.149.374-.067.992.224 1.026-.8.731-.44.844-.847.449-.343.786-.692.59-.088.845-.185.8-1.051.313-.9.318-.822.479-.605.728-.606.705-.552.774-.629.855-.224 1.113-.516 1-.983.552-1.063.318-.4 1.039-.911.664-.43 1L94.2 89.3l-1.149.51-.119 1.2-.117.765.121.823-.424.907-.922.565.01 1.01-.247.92-.7.657-1.194.689.054 1.115.127.778-.28.5.378.752-.394.739-.011.924-.942.487.358 1.071-.613.82.149.955.373.892-.255.976.215 1.063-.66.812-.653.772-.578.413ZM47.423 0h71.029l-.1.571.011 1.151.467.867.229 1.019-.356.974L118 5.3l-.522.885-.637.762-1.171.3.319 1.091-.511.951.168.987-.263.907-.7.75.063 1.1-.98.444-.659.712-.487.874-.518.788-.259.51.079.963.278.872.144.913.219.922.617.931-.33.963.308.942-.339 1.133.677.937.44 1.059-.053 1.2-.961.775-.138 1.129-1 .687.033 1.164-.493.795-.432.976-.871.621-.721.778-.125 1.206.733.786.48.949.368.995.742.821.192 1.058.912.955-.46.824-.161.816-.254.925-.558.875-.219 1.014.739.852-.023.484Z" transform="translate(20.384)" fill="url(#c)"/></g></g></svg>