<svg id="Group_2038" data-name="Group 2038" xmlns="http://www.w3.org/2000/svg" width="52" height="52" viewBox="0 0 52 52">
  <circle id="Ellipse_72" data-name="Ellipse 72" cx="26" cy="26" r="26" fill="#fff"/>
  <g id="g10" transform="translate(10.112 8.665)">
    <g id="g14" transform="translate(0 0)">
      <g id="Group_2037" data-name="Group 2037" transform="translate(0 0)">
        <g id="g22">
          <path id="path24" d="M-558.97,0h-26.486c-2.147,0-2.939.792-2.939,2.94V28.856a6.648,6.648,0,0,0,.031.678,2.256,2.256,0,0,0,.494,1.44c.043.051.488.382.488.382.239.117.4.2.673.313l13.042,5.464a2.976,2.976,0,0,0,1.452.422h0a2.977,2.977,0,0,0,1.452-.422l13.042-5.464c.27-.109.433-.2.673-.313,0,0,.445-.331.488-.382a2.256,2.256,0,0,0,.494-1.44,6.646,6.646,0,0,0,.031-.678V2.94c0-2.148-.792-2.94-2.939-2.94" transform="translate(588.395 0)" fill="#190a28" fill-rule="evenodd"/>
        </g>
        <g id="g26" transform="translate(4.707 22.816)">
          <path id="path28" d="M-435.851-61.543l-.006.06-.006.066-.012.06-.018.06-.012.054-.018.06-.024.054-.024.048-.023.054-.03.048-.03.048-.036.048-.03.048-.035.042-.042.042-.036.036-.048.042-.042.036-.048.036-.047.029-.047.036-.054.03-.054.024-.053.03-.06.024-.059.024-.059.018-.059.018-.054.018-.059.012-.053.012-.053.012-.06.012-.06.006-.053.006-.06.006-.065.006-.059.006h-.25l-.06-.006h-.065l-.059-.006-.06-.006L-438-60.3l-.059-.012-.059-.006-.06-.012-.06-.012-.059-.012-.059-.012-.06-.018-.053-.012-.06-.018-.059-.018-.054-.024-.059-.018-.054-.018-.06-.024-.054-.024-.054-.024-.053-.029-.054-.024-.053-.03-.048-.03-.054-.03-.047-.03-.048-.03-.048-.036-.047-.036-.048-.036-.048-.036-.042-.036-.047-.042.036-.048.041-.042.036-.048.042-.048.036-.042.035-.048.042-.048.035-.042.042-.048.036-.042.042-.048.036-.048.036-.042.041-.048.036-.048.042-.042.036-.048.047.036.054.036.048.036.053.036.048.03.053.036.047.03.054.024.047.03.054.024.054.024.053.024.054.018.054.024.059.018.06.018.053.018.06.012.059.012.059.012.065.006.06.012h.06l.065.006h.131l.065-.006.06-.012.053-.012.053-.012.048-.018.042-.024.048-.036.035-.042.024-.048.018-.054.006-.06v-.012l-.006-.072-.024-.06-.03-.042-.041-.036-.048-.036-.047-.024-.053-.024-.06-.024-.071-.03-.042-.012-.047-.012-.054-.018-.053-.012-.059-.018-.06-.012-.065-.018-.059-.012-.065-.018-.059-.012-.06-.018-.059-.012-.06-.018-.054-.018-.059-.012-.054-.018-.053-.018-.054-.018-.065-.024-.06-.024-.059-.024-.06-.024-.053-.03-.06-.03-.048-.03-.054-.03-.047-.036-.048-.03-.041-.036-.042-.042-.042-.042-.036-.042-.036-.042-.03-.042-.029-.048-.03-.054-.024-.041-.018-.048-.017-.054-.018-.048-.012-.06-.012-.054-.006-.06-.006-.06-.006-.066v-.138l.006-.06.006-.054.006-.06.012-.054.012-.054.018-.054.012-.054.024-.054.024-.054.024-.054.03-.054.03-.054.035-.048.036-.048.042-.048.042-.042.042-.048.048-.042.042-.03.048-.036.048-.036.047-.03.054-.03.054-.024.053-.03.054-.024.059-.018.059-.024.054-.018.048-.012.054-.012.054-.012.059-.012.054-.012.059-.006.06-.006.059-.006.059-.006h.256l.065.006.065.006h.059l.066.006.059.012.065.006.06.012.054.012.059.012.059.012.053.012.06.018.053.018.054.012.06.024.053.018.053.024.053.024.06.024.054.03.047.024.054.03.053.03.048.03.054.036.047.03.048.036.047.036.047.036-.035.048-.03.048-.036.048-.036.048-.035.054-.03.048-.036.048-.036.048-.03.048-.036.048-.036.048-.03.048-.035.054-.036.048-.035.048-.03.048-.036.048-.048-.036-.053-.03-.048-.03-.048-.036-.053-.024-.048-.03-.053-.024-.048-.024-.054-.024-.047-.024-.053-.018-.048-.024-.065-.018-.059-.018-.059-.018-.06-.012-.059-.012-.059-.012-.059-.006-.06-.006-.053-.006h-.131l-.065.012-.06.012-.053.012-.047.024-.042.024-.053.048-.036.054-.023.054-.006.06v.012l.006.078.029.066.024.036.041.042.054.03.047.03.059.024.066.024.071.024.047.012.047.018.054.012.053.018.059.012.066.018.065.018.065.018.065.012.059.018.065.018.06.012.06.018.059.018.053.018.06.018.054.018.053.018.066.024.059.03.059.024.06.03.054.03.054.03.047.03.048.036.047.03.048.042.048.042.041.048.042.042.036.048.036.054.029.048.03.054.024.048.018.054.018.054.012.054.012.06.012.06.006.06.006.066v.143Zm-4.174,1.2h-3.41V-64.7H-440v.986h-2.3V-63h2.071v.926H-442.3v.741h2.333v.986Zm-4.348,0h-1.089v-2.573l-.03.048-.036.054-.03.048-.035.048-.03.054-.036.048-.029.048-.03.054-.035.048-.03.048-.036.048-.03.054-.036.048-.03.048-.03.054-.036.048-.03.048-.036.054-.029.048-.036.048-.03.054-.03.048-.036.048-.03.054-.036.048-.03.048-.036.048-.03.054-.03.048-.036.048-.03.054-.036.048-.03.048-.035.054-.03.048h-.024l-.036-.054-.03-.048-.036-.054-.03-.048-.036-.054-.03-.048-.035-.054-.03-.048-.036-.054-.03-.048-.036-.054-.029-.048-.036-.054-.03-.048-.036-.054-.03-.048-.036-.054-.036-.048-.03-.054-.036-.048-.03-.054-.036-.048-.03-.054-.036-.048-.03-.054-.036-.048-.03-.054-.036-.048-.03-.054-.036-.048-.03-.054-.035-.048-.03-.054-.036-.048v2.561h-1.131V-64.7h1.22l.03.048.03.054.035.047.03.054.03.048.03.054.03.047.036.054.03.048.03.048.03.053.03.048.036.054.03.048.03.053.03.048.036.048.03.054.029.048.03.054.03.048.036.053.03.048.03.054.03.047.03.048.036.054.03.048.03.054.03.047.03.054.036.048.03.053.03.048.03-.048.03-.053.036-.048.03-.054.03-.047.03-.054.036-.048.03-.054.03-.048.03-.047.036-.054.03-.048.03-.053.03-.048.036-.054.03-.048.03-.054.029-.048.03-.048.035-.053.03-.048.03-.054.029-.048.036-.053.03-.048.03-.048.03-.054.035-.047.03-.054.029-.048.03-.054.036-.047.03-.054.03-.048h1.22v4.351Zm-6.905-1.793-.018-.054-.024-.06-.024-.054-.018-.054-.024-.054-.024-.06-.018-.054-.024-.054-.024-.054-.018-.054-.024-.06-.018-.054-.024-.054-.024-.054-.018-.054-.024-.06-.024-.054-.018-.054-.024-.054-.023-.06-.018-.054-.024-.054-.024.054-.018.054-.024.06-.024.054-.018.054-.024.054-.024.06-.024.054-.018.054-.024.054-.024.054-.018.06-.024.054-.024.054-.018.054-.024.054-.024.06-.024.054-.018.054-.024.054-.024.06-.018.054-.024.054h1.006Zm1.869,1.793h-1.167l-.024-.054-.018-.054-.024-.054-.024-.06-.018-.053-.024-.054-.024-.054-.018-.054-.024-.054-.024-.054-.018-.054-.024-.06-.024-.054-.018-.054-.024-.054h-1.708l-.024.054-.018.054-.024.054-.024.06-.018.054-.024.054-.024.054-.018.054-.023.054-.024.054-.018.053-.024.06-.024.054-.018.054-.024.054h-1.2l.023-.054.024-.054.024-.054.024-.06.018-.053.024-.054.024-.054.024-.054.024-.054.024-.06.023-.054.024-.054.018-.054.024-.054.023-.054.024-.06.024-.054.024-.054.024-.054.024-.054.018-.054.023-.06.024-.054.024-.054.023-.054.024-.054.024-.054.023-.06.018-.054.024-.054.024-.054.024-.054.024-.054.024-.06.024-.054.024-.054.018-.054.024-.054.023-.054.024-.06.024-.054.024-.054.024-.054.024-.054.018-.054.024-.053.024-.06.024-.054.024-.054.024-.054.024-.054.023-.054.018-.06.024-.054.024-.054.024-.054.024-.054.024-.054.024-.06.024-.054.018-.054.024-.054.024-.054.024-.054.024-.06.024-.054.024-.054.024-.054.018-.054.024-.054.024-.06.024-.054.023-.054.024-.054.024-.054.024-.054.018-.06.024-.054.024-.054.024-.054h1.1l.024.054.024.054.024.054.024.06.018.054.024.054.024.054.024.054.024.054.023.06.024.054.024.054.018.054.024.054.024.054.024.06.023.054.024.054.024.054.024.054.018.054.024.06.024.054.024.054.024.054.024.054.024.054.024.06.018.054.024.054.024.054.024.054.024.054.024.06.024.053.024.054.018.054.024.054.024.054.024.054.024.06.024.054.024.054.024.054.018.054.024.054.024.06.024.054.024.054.024.054.024.054.024.054.018.06.024.054.024.054.024.054.023.054.024.054.024.06.024.054.018.054.024.054.024.054.023.054.024.06.024.054.024.054.023.054.018.054.024.054.024.06.024.054.024.054.024.054.024.054.024.053.018.06.023.054.024.054.024.054Zm-5.214-.556-.048.036-.041.03-.048.036-.047.03-.048.036-.048.03-.047.03-.054.03-.053.03-.054.03-.054.024-.053.03-.059.024-.053.024-.06.024-.053.024-.054.018-.054.018-.053.018-.059.018-.053.018-.06.012-.053.012-.059.012-.06.012-.06.006-.065.006-.059.006-.065.006-.06.006-.065.006h-.256l-.059-.006-.065-.006-.059-.006-.059-.006-.06-.006-.059-.012-.06-.012-.053-.012-.06-.012-.054-.018-.059-.012-.054-.018-.054-.024-.053-.018-.059-.024-.054-.024-.053-.024-.053-.024-.054-.03-.047-.03-.053-.03-.048-.03-.047-.03-.048-.036-.047-.036-.047-.036-.042-.036-.042-.036-.042-.042-.041-.036-.042-.042-.041-.042-.036-.042-.036-.048-.036-.042-.03-.048-.036-.048-.03-.048-.03-.048-.03-.054-.03-.048-.023-.054-.024-.054-.024-.054-.024-.054-.018-.048-.024-.054-.012-.054-.018-.054-.012-.06-.018-.054-.012-.06-.006-.054-.012-.06-.006-.054-.006-.06-.006-.06-.006-.06v-.2l.006-.066v-.06l.006-.06.006-.066.012-.059.006-.06.012-.054.018-.06.012-.06.017-.054.018-.06.018-.054.024-.06.024-.054.024-.054.024-.054.023-.054.03-.054.03-.048.03-.048.03-.048.03-.048.035-.048.036-.048.036-.048.036-.042.041-.042.036-.042.042-.042.042-.042.042-.036.048-.042.042-.036.048-.036.048-.03.047-.036.048-.03.047-.03.053-.03.054-.03.053-.03.053-.024.054-.024.059-.03.048-.018.059-.018.054-.024.053-.012.053-.018.06-.012.054-.018.059-.012.059-.006.06-.012.059-.006.059-.006.059-.006.06-.006h.256l.066.006.065.006h.059l.059.006.065.012.054.006.06.012.059.012.054.012.053.012.054.012.054.018.053.012.048.018.054.018.053.024.053.024.054.024.054.03.053.024.048.03.053.03.047.03.054.03.048.036.047.03.048.036.047.036.048.042.048.036-.036.048-.041.042-.036.048-.041.048-.036.048-.036.042-.042.048-.035.048-.036.042-.042.048-.036.048-.042.048-.036.042-.036.048-.042.048-.036.048-.042.042-.036.048-.048-.036-.047-.042-.048-.03-.047-.036-.048-.03-.048-.03-.048-.03-.053-.03-.048-.024-.048-.024-.048-.018-.053-.018-.053-.018-.054-.012-.059-.012-.059-.012-.059-.006-.065-.006-.066-.006h-.125l-.059.006-.054.006-.059.012-.053.012-.054.018-.053.018-.054.024-.053.024-.048.03-.047.03-.048.03-.042.036-.042.036-.041.036-.036.042-.042.042-.036.048-.03.042-.03.048-.029.054-.03.048-.024.054-.018.054-.024.054-.018.06-.012.059-.012.054-.012.066-.006.06-.006.06v.138l.006.06.006.054.006.06.012.054.012.054.012.054.018.054.018.048.024.06.024.054.03.054.03.048.03.048.036.048.036.042.042.042.036.042.041.036.048.036.048.036.047.03.048.03.054.024.053.024.054.024.06.018.059.018.06.012.059.012.059.006.065.006h.137l.066-.006.065-.006.059-.006.059-.012.06-.012.059-.018.053-.012.054-.024.048-.024.053-.024.042-.024.048-.03v-.544h-.869v-.872h1.964v1.942Z" transform="translate(458.795 64.783)" fill="#fff"/>
        </g>
        <g id="g30" transform="translate(4.775 4.991)">
          <path id="path32" d="M-41.608-153.176h2.579v-2h-2.579v-4.073h2.682v-2H-43.8v14.4h4.913v-2h-2.723Z" transform="translate(43.799 161.24)" fill="#fff"/>
        </g>
        <g id="g34" transform="translate(21.182 4.867)">
          <path id="path36" d="M-80.888-163.733v3.25c0,.576-.266.843-.819.843h-.41a.733.733,0,0,1-.839-.843v-9.092a.733.733,0,0,1,.839-.843h.369c.553,0,.819.267.819.843v2.818h2.149V-169.7a2.324,2.324,0,0,0-2.64-2.653h-1.065a2.353,2.353,0,0,0-2.661,2.674v9.3a2.353,2.353,0,0,0,2.661,2.674H-81.4a2.352,2.352,0,0,0,2.661-2.674v-3.353Z" transform="translate(85.146 172.352)" fill="#fff"/>
        </g>
        <path id="path38" d="M634.658-788.385h2.191v-14.4h-2.191Z" transform="translate(-616.825 807.775)" fill="#fff"/>
        <g id="g40" transform="translate(10.745 4.991)">
          <path id="path42" d="M-74.274-121.528c0,.576-.266.844-.819.844h-.9v-5.307h.9c.553,0,.819.267.819.843Zm-.471-6.4h-3.439v14.4h2.19v-5.225h1.249a2.352,2.352,0,0,0,2.661-2.674v-3.826a2.352,2.352,0,0,0-2.661-2.674" transform="translate(78.184 127.925)" fill="#fff"/>
        </g>
        <g id="g44" transform="translate(9.942 32.41)">
          <path id="path46" d="M0,0H12.539l-6.4,2.111Z" fill="#fff" fill-rule="evenodd"/>
        </g>
      </g>
    </g>
  </g>
</svg>
