<svg xmlns="http://www.w3.org/2000/svg" width="57.236" height="26" viewBox="0 0 57.236 26">
  <g id="Group_2219" data-name="Group 2219" transform="translate(-49.074 -59.965)">
    <g id="Group_1805" data-name="Group 1805" transform="translate(49.074 59.965)">
      <g id="Group_1803" data-name="Group 1803" transform="translate(0 0)">
        <path id="Path_4751" data-name="Path 4751" d="M66.774,79.161H58.044v7.084h-8.97V60.254H70.212l-1.389,7.636H58.044v4.278h10Z" transform="translate(-49.074 -60.245)" fill="#fff"/>
        <path id="Path_4752" data-name="Path 4752" d="M114.125,86.236l-1.691-14.665-4.888,14.665h-6.083l-4.853-14.9-2.042,14.9H85.557l4.731-26H100.7l3.775,12.224,3.66-12.224H118.5l4.731,26Z" transform="translate(-66.582 -60.236)" fill="#fff"/>
      </g>
    </g>
    <g id="Group_1806" data-name="Group 1806" transform="translate(102.016 59.983)">
      <path id="Path_4757" data-name="Path 4757" d="M150.866,60.271h1.758V60.7h-.6v1.129h-.559V60.7h-.6Z" transform="translate(-150.866 -60.271)" fill="#fff"/>
      <path id="Path_4758" data-name="Path 4758" d="M156.958,61.827h-.513v-.855a1.994,1.994,0,0,1,.031-.329h-.011c-.014.055-.064.2-.106.309l-.338.875H155.5l-.318-.87c-.044-.121-.079-.239-.1-.314h-.009a1.824,1.824,0,0,1,.022.329v.855h-.486V60.271h.831l.278.791a.934.934,0,0,1,.057.2h0a1.014,1.014,0,0,1,.057-.2l.267-.786h.853Z" transform="translate(-152.663 -60.271)" fill="#fff"/>
    </g>
  </g>
</svg>
