<svg xmlns="http://www.w3.org/2000/svg" width="179.737" height="50" viewBox="0 0 179.737 50">
  <g id="Group_1725" data-name="Group 1725" transform="translate(-591.862 -473.255)">
    <path id="Path_4353" data-name="Path 4353" d="M722.844,483.756c.082-2.051.984-3.815,3.65-3.815,2.625,0,3.568,1.764,3.651,3.815.041,1.19.041,1.969,0,3.241-.082,2.051-1.026,3.815-3.651,3.815s-3.568-1.764-3.65-3.815c-.041-1.313-.041-2.051,0-3.241m3.65,13.741c8.7,0,11.4-5.455,11.649-10.008a34.9,34.9,0,0,0,0-4.143c-.246-4.594-2.871-10.09-11.649-10.09s-11.4,5.5-11.649,10.09a33.521,33.521,0,0,0,0,4.061c.287,4.635,2.912,10.09,11.649,10.09" transform="translate(-76.88 -0.001)" fill="#fff"/>
    <path id="Path_4354" data-name="Path 4354" d="M786.147,497.854h8V481.488h6.481v-6.809h-20.96v6.809h6.481Z" transform="translate(-117.46 -0.891)" fill="#fff"/>
    <path id="Path_4355" data-name="Path 4355" d="M848.1,492.645v-4.43h3.486c1.518,0,2.461.41,2.461,2.174,0,1.846-.943,2.256-2.461,2.256Zm0-12.756h2.994c1.6,0,2.461.369,2.461,1.928,0,1.6-.861,1.969-2.461,1.969H848.1ZM860.4,495.269a5.76,5.76,0,0,0,1.436-4.019,5.423,5.423,0,0,0-1.313-3.979,6.235,6.235,0,0,0-2.653-1.513c2.018-.724,3.228-2.186,3.228-4.967,0-3.9-2.461-6.111-7.957-6.111H840.552v23.175h12.469c4.061,0,6.153-1.148,7.383-2.584" transform="translate(-155.54 -0.891)" fill="#fff"/>
    <path id="Path_4356" data-name="Path 4356" d="M910.84,481l2.173,7.506h-4.634L910.552,481Zm-5.168,16.858.938-3.24h8.173l.938,3.24h8.2l-7.834-23.175H905.22l-7.834,23.175Z" transform="translate(-191.086 -0.891)" fill="#fff"/>
    <path id="Path_4357" data-name="Path 4357" d="M775.924,553.387l-8.491-11.251h-7.588V565.8h7.588v-11.46l8.655,11.46h7.424V542.136h-7.588Z" transform="translate(-105.063 -43.081)" fill="#fff"/>
    <path id="Path_4358" data-name="Path 4358" d="M978.751,548.534l2.086-6.4h-18.95V565.8h16.885l2.1-6.4H969.639v-2.748H976.1l1.746-5.414h-8.207v-2.707Z" transform="translate(-231.427 -43.08)" fill="#fff"/>
    <path id="Path_4359" data-name="Path 4359" d="M979.847,491.045V474.679h-8v23.175h15.719l2.206-6.809Z" transform="translate(-237.658 -0.891)" fill="#fff"/>
    <path id="Path_4360" data-name="Path 4360" d="M905.4,556.052h5.315v2.406a12.561,12.561,0,0,1-3.445.383c-3.364,0-4.43-1.887-4.594-3.733a33.04,33.04,0,0,1,0-4.061c.082-1.8.943-3.527,5.291-3.527a44.7,44.7,0,0,1,6.522.574l1.928-6.358a42.573,42.573,0,0,0-9.516-1.025c-8.491,0-11.608,3.979-12.3,9.8a32.759,32.759,0,0,0,0,4.922c.246,4.348,2.707,10.008,11.238,10.008a31.028,31.028,0,0,0,11.772-2.133V550.269H907.281Z" transform="translate(-189.284 -42.19)" fill="#fff"/>
    <path id="Path_4361" data-name="Path 4361" d="M1023.3,553.252v-4.717h2.543c1.845,0,2.625.492,2.625,2.42,0,1.845-.779,2.3-2.625,2.3Zm13.289,12.551-5.205-8.665a6.9,6.9,0,0,0,3.36-2.41,7.348,7.348,0,0,0,1.435-4.717,7.233,7.233,0,0,0-1.435-4.758c-1.272-1.681-3.364-3.117-7.506-3.117h-11.69V565.8h7.752V556.95l4.922,8.853Z" transform="translate(-264.986 -43.081)" fill="#fff"/>
    <path id="Path_4362" data-name="Path 4362" d="M612.412,542.135l-3.331,11.127-3.437-11.127h-9.475L591.862,565.8h8.2l1.858-13.56,4.417,13.56h5.537l4.45-13.349,1.539,13.349h8.286l-4.307-23.667Z" transform="translate(0 -43.08)" fill="#fff"/>
    <path id="Path_4363" data-name="Path 4363" d="M604.131,491.537h6.554l2.022-6.235h-8.576v-3.815h9.818l2.2-6.809H596.133v23.175h8Z" transform="translate(-2.671 -0.891)" fill="#fff"/>
    <path id="Path_4364" data-name="Path 4364" d="M655.388,483.8c.082-2.092.943-3.856,3.65-3.856,2.625,0,3.568,1.764,3.651,3.856.041,1.23.041,1.928,0,3.2-.082,2.051-1.026,3.815-3.651,3.815s-3.568-1.764-3.65-3.815c-.041-1.272-.041-2.051,0-3.2m-8,3.691c.287,4.553,2.912,10.008,11.649,10.008,8.7,0,11.362-5.455,11.648-10.09a33.357,33.357,0,0,0,0-4.061c-.246-4.594-2.748-10.09-11.648-10.09-8.778,0-11.4,5.5-11.649,10.09a34.9,34.9,0,0,0,0,4.143" transform="translate(-34.69)" fill="#fff"/>
    <path id="Path_4365" data-name="Path 4365" d="M837.627,556.245l2.088-7.711H840l2.088,7.711Zm-3.326-14.11L826.754,565.8h8.285l.9-3.322h7.84l.9,3.322h8.2l-7.547-23.667Z" transform="translate(-146.91 -43.08)" fill="#fff"/>
    <path id="Path_4366" data-name="Path 4366" d="M697.24,556.245l2.088-7.711h.287l2.088,7.711Zm-3.326-14.11L686.367,565.8h8.285l.9-3.322h7.84l.9,3.322h8.2l-7.547-23.667Z" transform="translate(-59.107 -43.08)" fill="#fff"/>
    <path id="Path_4367" data-name="Path 4367" d="M1031.294,491.045V474.679h-8v23.175h15.719l2.206-6.809Z" transform="translate(-269.835 -0.891)" fill="#fff"/>
    <path id="Path_4368" data-name="Path 4368" d="M1055.07,475.312v1.705h-.845v-1.705h-.9v-.646h2.656v.646Z" transform="translate(-288.614 -0.882)" fill="#fff"/>
    <path id="Path_4369" data-name="Path 4369" d="M1062.434,474.666l.421,1.2a1.422,1.422,0,0,1,.086.295h.006a1.539,1.539,0,0,1,.086-.3l.4-1.189h1.288v2.352h-.775v-1.292a3.031,3.031,0,0,1,.047-.5h-.016c-.02.083-.1.308-.159.467l-.51,1.321h-.788l-.481-1.315c-.066-.182-.119-.361-.149-.473h-.013a2.744,2.744,0,0,1,.033.5v1.292h-.735v-2.352Z" transform="translate(-293.528 -0.882)" fill="#fff"/>
  </g>
</svg>
