<svg id="svg-instagram-white-Layer_1" data-name="Layer 1" xmlns="http://www.w3.org/2000/svg" width="1536" height="1536" viewBox="0 0 1536 1536">
  <defs>
    <style>
      .cls-1 {
        fill: #fff;
      }
    </style>
  </defs>
  <path class="cls-1" d="M1024,768q0-106-75-181T768,512q-106,0-181,75T512,768q0,106,75,181t181,75q106,0,181-75T1024,768Zm138,0q0,164-115,279T768,1162q-164,0-279-115T374,768q0-164,115-279T768,374q164,0,279,115T1162,768Zm108-410q0,38-27,65t-65,27q-38.00006,0-65-27t-27-65q0-38,27-65t65-27q38.00006,0,65,27T1270,358ZM768,138q-7,0-76.5-.5t-105.5,0q-36,.5-96.5,3t-103,10Q344,158,315,169A261.81807,261.81807,0,0,0,169,315q-11,29-18.5,71.5t-10,103q-2.5,60.5-3,96.5t0,105.5q.5,69.5.5,76.5t-.5,76.5q-.5,69.5,0,105.5t3,96.5q2.5,60.50006,10,103T169,1221a261.81807,261.81807,0,0,0,146,146q29,11.00006,71.5,18.5t103,10q60.5,2.49994,96.5,3t105.5,0q69.5-.50006,76.5-.5t76.5.5q69.5.50006,105.5,0t96.5-3q60.50006-2.49994,103-10T1221,1367a261.81807,261.81807,0,0,0,146-146q11.00006-29.00006,18.5-71.5t10-103q2.49994-60.50006,3-96.5t0-105.5q-.50006-69.5-.5-76.5t.5-76.5q.50006-69.5,0-105.5t-3-96.5q-2.49994-60.5-10-103T1367,315a261.81807,261.81807,0,0,0-146-146q-29.00006-11-71.5-18.5t-103-10q-60.50006-2.5-96.5-3t-105.5,0Q775,138,768,138Zm768,630q0,228.99994-5,317-9.99994,207.99994-124,322t-322,124q-87.99994,5.00006-317,5t-317-5q-208-9.99994-322-124T5,1085Q0,997.00006,0,768T5,451Q15,243,129,129T451,5q88-5,317-5t317,5q207.99994,10,322,124t124,322Q1536.00006,539,1536,768Z"/>
</svg>
