<svg xmlns="http://www.w3.org/2000/svg" xmlns:xlink="http://www.w3.org/1999/xlink" width="40" height="40" viewBox="0 0 40 40">
  <defs>
    <clipPath id="clip-path">
      <rect id="Rectangle_6312" data-name="Rectangle 6312" width="28.522" height="12.221" fill="#190a28"/>
    </clipPath>
  </defs>
  <g id="Group_12364" data-name="Group 12364" transform="translate(9189 18833)">
    <g id="Group_12362" data-name="Group 12362" transform="translate(-10223 -24593.004)">
      <circle id="Ellipse_81776" data-name="Ellipse 81776" cx="20" cy="20" r="20" transform="translate(1034 5760.004)" fill="#fff"/>
    </g>
    <g id="Group_12363" data-name="Group 12363" transform="translate(-0.012 -1.142)">
      <path id="Netflix_2015_logo" d="M3.922,7.211c-.429.075-.866.1-1.317.158L1.227,3.335V7.542C.8,7.587.406,7.648,0,7.708V0H1.144L2.71,4.373V0H3.922V7.211ZM6.293,2.823c.467,0,1.182-.023,1.611-.023V4c-.534,0-1.159,0-1.611.023V5.819c.708-.045,1.415-.105,2.13-.128V6.85l-3.335.264V0H8.423V1.2H6.293V2.823ZM12.9,1.2h-1.25v5.54c-.406,0-.813,0-1.2.015V1.2H9.2V0h3.7V1.2ZM14.859,2.74h1.648v1.2H14.859V6.677H13.677V0h3.365V1.2H14.859V2.74ZM19,5.623c.685.015,1.377.068,2.047.105V6.917c-1.076-.068-2.153-.135-3.252-.158V0H19V5.623ZM22.062,7c.384.023.79.045,1.182.09V0H22.062Zm6.458-7L26.993,3.666l1.528,4.042c-.452-.06-.9-.143-1.355-.218L26.3,5.262l-.881,2.047c-.437-.075-.858-.1-1.295-.158l1.551-3.53L24.275,0H25.57l.79,2.025L27.2,0h1.317Z" transform="translate(-9182.987 -18816.859)" fill="#190a28"/>
      <g id="Group_12361" data-name="Group 12361" transform="translate(-9182.988 -18816.859)">
        <g id="Group_12293" data-name="Group 12293" clip-path="url(#clip-path)">
          <path id="Path_26498" data-name="Path 26498" d="M395.5,308.389h-.544v-1.507c-.011,0-.665.817-1,1.236-.119-.15-1-1.24-1-1.24v1.5l-.513.012-.005-2.18h.626l.905,1.134.89-1.133h.645Z" transform="translate(-379.658 -296.237)" fill="#190a28"/>
          <path id="Path_26499" data-name="Path 26499" d="M174.942,304.965h-.6a1.028,1.028,0,0,0-1.192-.126.638.638,0,0,0-.321.61.608.608,0,0,0,.377.574,1.092,1.092,0,0,0,1.012-.042.3.3,0,0,0,.172-.3h-.669v-.418h1.264a.971.971,0,0,1-.386,1.044,1.848,1.848,0,0,1-1.756.073,1.046,1.046,0,0,1-.6-.956,1.033,1.033,0,0,1,.546-.947,1.755,1.755,0,0,1,1.052-.212,1.434,1.434,0,0,1,.755.244.869.869,0,0,1,.342.453" transform="translate(-166.638 -294.352)" fill="#190a28"/>
          <path id="Path_26500" data-name="Path 26500" d="M522.512,308.338l-.006-2.18h2.065l0,.438s-1.436-.005-1.51,0v.411l1.461.01v.441h-1.462v.453l1.511.011v.418Z" transform="translate(-505.491 -296.188)" fill="#190a28"/>
          <path id="Path_26501" data-name="Path 26501" d="M616.256,304.779h-.566c-.135-.192-.223-.221-.569-.221s-.541.065-.541.219c0,.175.187.2.3.217.228.027.458.041.685.077a1.445,1.445,0,0,1,.4.114.585.585,0,0,1,.09,1.009,1.082,1.082,0,0,1-.435.188,2.109,2.109,0,0,1-1.151-.058.829.829,0,0,1-.48-.389,1.851,1.851,0,0,1-.075-.191h.572a.683.683,0,0,0,.611.255,1.973,1.973,0,0,0,.325-.012.554.554,0,0,0,.229-.087.166.166,0,0,0-.017-.3.744.744,0,0,0-.254-.076c-.228-.031-.458-.043-.685-.078a1.578,1.578,0,0,1-.365-.105.561.561,0,0,1-.126-.949,1.064,1.064,0,0,1,.331-.185,1.809,1.809,0,0,1,1.2.023.779.779,0,0,1,.522.547" transform="translate(-593.92 -294.213)" fill="#190a28"/>
          <path id="Path_26502" data-name="Path 26502" d="M277.668,308.37l1.107-2.179h.6l1.112,2.179h-.6l-.214-.413h-1.228l-.218.413Zm1.794-.855-.4-.827c-.149.283-.272.547-.4.827Z" transform="translate(-268.626 -296.22)" fill="#190a28"/>
        </g>
      </g>
    </g>
  </g>
</svg>
