<svg xmlns="http://www.w3.org/2000/svg" width="50" height="60.917" viewBox="0 0 50 60.917">
  <defs>
    <style>
      .cls-1 {
        fill: #a2c617;
      }

      .cls-2 {
        fill: #fff;
      }

      .cls-3, .cls-4 {
        fill: #1d1d1b;
      }

      .cls-4 {
        fill-rule: evenodd;
      }
    </style>
  </defs>
  <title>PEGI 3</title>
  <g id="BG_green" data-name="BG green">
    <g id="PEGI_repeat" data-name="PEGI repeat">
      <rect class="cls-1" width="50" height="50"/>
    </g>
  </g>
  <g id="_3" data-name="3">
    <path class="cls-2" d="M21.6011,20.998h1.6997c2.7002,0,3.2002-1.3999,3.2002-3.8501,0-3.0502-.5996-4.0502-2.1001-4.0502-1.25,0-1.9502,1.0498-1.9502,3.5V17.998H15.1006c0-7.4506,2.3501-11.601,9.8506-11.601,5.75,0,9.3506,3.3003,9.3506,10.101,0,4.5-1.4004,6.4004-3.6006,7.25,2.6006,1.4502,4.1006,3,4.1006,8.3506,0,7.1006-2.6504,11.4014-10.2505,11.4014-8.8506,0-10.001-5.751-9.9507-13.3516h7.7002v3.3008c0,2,.8003,2.8496,1.9502,2.8496,1.5,0,2.4502-1.0498,2.4502-4.4004,0-3.6992-.7998-5-3.6001-5h-1.5Z"/>
  </g>
  <g id="BORDER_white" data-name="BORDER white">
    <g id="border">
      <path class="cls-2" d="M0,0V61.001H50V0ZM49,49H1V1H49Z"/>
    </g>
  </g>
  <g id="TM_white" data-name="TM white">
    <path id="TM" class="cls-2" d="M44.7773,2v.37207h-.791V4.877h-.4648V2.37207h-.791V2ZM48,4.877h-.4648V2.61133h-.0137L46.7246,4.877h-.3789l-.7578-2.26562h-.0137V4.877h-.4648V2h.7383l.7168,2.13965h.0136L47.2764,2H48Z"/>
    <g id="www.pegi.info">
      <g>
        <polygon class="cls-3" points="3.175 57.141 4.023 57.141 4.803 53.349 4.821 53.349 5.635 57.141 6.431 57.141 7.53 52.499 6.77 52.499 6.051 56.294 6.033 56.294 5.262 52.499 4.405 52.499 3.617 56.294 3.599 56.294 2.854 52.499 2.092 52.499 3.175 57.141 3.175 57.141"/>
        <polygon class="cls-3" points="8.789 57.141 9.637 57.141 10.417 53.349 10.435 53.349 11.249 57.141 12.044 57.141 13.145 52.499 12.383 52.499 11.665 56.294 11.646 56.294 10.875 52.499 10.019 52.499 9.231 56.294 9.213 56.294 8.468 52.499 7.707 52.499 8.789 57.141 8.789 57.141"/>
        <polygon class="cls-3" points="14.402 57.141 15.251 57.141 16.03 53.349 16.047 53.349 16.862 57.141 17.658 57.141 18.758 52.499 17.997 52.499 17.278 56.294 17.261 56.294 16.489 52.499 15.633 52.499 14.844 56.294 14.827 56.294 14.082 52.499 13.319 52.499 14.402 57.141 14.402 57.141"/>
        <polygon class="cls-3" points="19.168 57.141 19.964 57.141 19.964 56.224 19.168 56.224 19.168 57.141 19.168 57.141"/>
        <path class="cls-4" d="M21.7661,54.8213c0-1.0576.1299-1.8184.9356-1.8184.6762,0,.8486.71.8486,1.7315,0,1.1943-.1724,1.9052-.8486,1.9052-.7793,0-.9356-.9179-.9356-1.8183ZM21.082,58.666h.7266V56.6133h.0185a1.052,1.052,0,0,0,.9698.6494c1.2036,0,1.5156-1.4717,1.5156-2.5283,0-1.377-.4155-2.3565-1.5156-2.3565a1.05205,1.05205,0,0,0-1.0044.6944h-.0181V52.499H21.082v6.167Z"/>
        <path class="cls-4" d="M25.7256,54.335v-.1729c0-.2754.0864-1.2119.8486-1.2119.6406,0,.8057.6143.8057,1.1338v.251Zm2.415.5722v-.2939c0-.9961-.1299-2.2354-1.5498-2.2354-1.4282,0-1.6538,1.3428-1.6538,2.5049,0,1.5928.4761,2.3799,1.6109,2.3799a1.57016,1.57016,0,0,0,1.5576-1.6455h-.7256c0,.3467-.0967,1.0752-.7891,1.0752-.8916,0-.8916-1.0752-.8916-1.7852Z"/>
        <path class="cls-4" d="M30.375,53.0029c.7793,0,.9355.917.9355,1.8184,0,.9512-.1562,1.6973-.9443,1.6973-.7256,0-.8398-.9444-.8398-1.6973,0-1.1084.1728-1.8184.8486-1.8184Zm1.6191-.5039h-.6914v.5899h-.0185a1.04433,1.04433,0,0,0-1.0049-.711c-1.1768,0-1.5137,1.1866-1.5137,2.4434,0,.6152.085,2.3193,1.4365,2.3193a1.10323,1.10323,0,0,0,1.0479-.622h.0186v.6064c0,.3203.0341,1.0391-.9024,1.0391-.3808,0-.7099-.1651-.7441-.5889h-.7276a1.34355,1.34355,0,0,0,1.5225,1.1602c.9365,0,1.5771-.502,1.5771-1.8887V52.499Z"/>
        <path class="cls-4" d="M32.9932,57.1406h.7265V52.499h-.7265v4.6416Zm0-5.3506h.7265v-.832h-.7265v.832Z"/>
        <polygon class="cls-3" points="34.879 57.141 35.676 57.141 35.676 56.224 34.879 56.224 34.879 57.141 34.879 57.141"/>
        <path class="cls-4" d="M36.8369,57.1406h.7285V52.499h-.7285v4.6416Zm0-5.3506h.7285v-.832h-.7285v.832Z"/>
        <path class="cls-3" d="M38.5605,57.1406h.7256V53.9375a.89673.89673,0,0,1,.92-.9346c.6572,0,.6835.5791.6835.9346v3.2031h.7276v-3.29c0-.5449,0-1.4727-1.2227-1.4727a1.24,1.24,0,0,0-1.124.668H39.252V52.499h-.6915v4.6416Z"/>
        <path class="cls-3" d="M42.7871,57.1406h.7295V53.0723h.7949V52.499h-.7949v-.5449c0-.3203.1543-.4414.4668-.4414h.3369v-.6231H43.793c-.7022,0-1.0059.3643-1.0059,1.0645v.5449h-.6748v.5733h.6748v4.0683Z"/>
        <path class="cls-4" d="M44.5879,54.8213c0,1.3076.331,2.4414,1.6719,2.4414,1.334,0,1.6709-1.1338,1.6709-2.4414,0-1.3086-.3291-2.4434-1.6709-2.4434-1.3321,0-1.6719,1.1348-1.6719,2.4434Zm1.6543,1.8711c-.7451,0-.8906-.8682-.8906-1.8711,0-1.0059.1562-1.8711.8906-1.8711.7793,0,.9277.8652.9277,1.8711,0,1.0029-.1562,1.8711-.9277,1.8711Z"/>
      </g>
    </g>
  </g>
</svg>
