<svg xmlns="http://www.w3.org/2000/svg" xmlns:xlink="http://www.w3.org/1999/xlink" width="40" height="40" viewBox="0 0 40 40">
  <defs>
    <clipPath id="clip-path">
      <rect id="Rectangle_5538" data-name="Rectangle 5538" width="17.24" height="3.672" fill="none"/>
    </clipPath>
  </defs>
  <g id="Group_9382" data-name="Group 9382" transform="translate(7295.585 -13310.459)">
    <path id="Path_23283" data-name="Path 23283" d="M2456.415,2295.46a20,20,0,1,1-20-20,20,20,0,0,1,20,20" transform="translate(-9712 11034.999)" fill="#fff"/>
    <path id="Path_23332" data-name="Path 23332" d="M2827.492,2425.46v20.283l4.593,1.455v-17.007c0-.8.357-1.333.93-1.15.75.208.9.946.9,1.739v6.792c2.859,1.384,5.109,0,5.109-3.651s-1.319-5.392-5.2-6.728a56.023,56.023,0,0,0-6.325-1.732" transform="translate(-10106.634 10890.999)" fill="#190a28"/>
    <path id="Path_23333" data-name="Path 23333" d="M2964.147,2766.276l7.376-2.625c.834-.309.962-.729.287-.95a4.969,4.969,0,0,0-2.753.142l-4.909,1.732v-2.763l.281-.093a16.68,16.68,0,0,1,3.42-.72,14.659,14.659,0,0,1,6.364.753c2.166.688,2.409,1.692,1.861,2.39a5.391,5.391,0,0,1-1.9,1.191l-10.021,3.6" transform="translate(-10237.822 10568.956)" fill="#190a28"/>
    <path id="Path_23334" data-name="Path 23334" d="M2566.4,2738.144c-2.221-.619-2.591-1.926-1.578-2.681a10.9,10.9,0,0,1,2.526-1.209l6.579-2.346v2.67l-4.729,1.7c-.838.3-.963.721-.289.942a4.833,4.833,0,0,0,2.744-.141l2.274-.82v2.383l-.458.075a14.744,14.744,0,0,1-7.068-.568" transform="translate(-9853.957 10596.808)" fill="#190a28"/>
    <path id="Path_23335" data-name="Path 23335" d="M3200.146,2915.13a.147.147,0,0,1-.051.134.271.271,0,0,1-.157.041h-.33v-.336h.349a.312.312,0,0,1,.116.02.143.143,0,0,1,.073.142m.239.772c-.017,0-.028-.021-.038-.049a.538.538,0,0,1-.009-.091l-.005-.153a.251.251,0,0,0-.045-.158.215.215,0,0,0-.066-.06.692.692,0,0,0,.088-.094.345.345,0,0,0,.046-.18.3.3,0,0,0-.178-.295.581.581,0,0,0-.226-.041h-.557v1.2h.212v-.488h.324a.4.4,0,0,1,.13.018.145.145,0,0,1,.064.13l.01.187c0,.048.006.076.009.1l.016.041,0,.014h.233v-.068m-1.44-.5a.885.885,0,0,1,.259-.635.9.9,0,0,1,.638-.261.89.89,0,0,1,.888.9.889.889,0,0,1-.888.888.91.91,0,0,1-.638-.258.886.886,0,0,1-.259-.63m.9,1.072a1.074,1.074,0,0,0,.757-1.833,1.053,1.053,0,0,0-.757-.314,1.076,1.076,0,0,0-.766,1.834,1.092,1.092,0,0,0,.766.314" transform="translate(-10463.068 10421.684)" fill="#190a28"/>
    <g id="Group_9370" data-name="Group 9370" transform="translate(-7284.205 13340.786)">
      <g id="Group_9369" data-name="Group 9369" transform="translate(0 0)" clip-path="url(#clip-path)">
        <path id="Path_23336" data-name="Path 23336" d="M2473.738,3013.047c-.576-.165-.674-.5-.411-.7a2.8,2.8,0,0,1,.658-.318l1.711-.611v.7l-1.231.443c-.218.079-.251.189-.074.247a1.3,1.3,0,0,0,.714-.037l.59-.215v.623l-.118.02a3.858,3.858,0,0,1-1.84-.147m3.609.073,1.92-.685c.218-.079.251-.189.074-.247a1.292,1.292,0,0,0-.714.037l-1.28.451v-.719l.074-.025a4.405,4.405,0,0,1,.889-.188,3.791,3.791,0,0,1,1.656.2c.563.178.627.441.484.622a1.371,1.371,0,0,1-.494.31l-2.609.939Zm.225-4.459c1.011.349,1.354.783,1.354,1.762,0,.954-.586,1.315-1.33.954V3009.6c0-.208-.038-.4-.233-.455-.149-.048-.242.091-.242.3v4.451l-1.194-.381v-5.307a14.068,14.068,0,0,1,1.644.453Zm2.566,4.872a.044.044,0,0,1-.014.038.076.076,0,0,1-.043.011h-.092v-.095h.1a.074.074,0,0,1,.032.006.04.04,0,0,1,.021.04m.066.217a.021.021,0,0,1-.01-.015.108.108,0,0,1,0-.026l0-.043a.078.078,0,0,0-.011-.045.072.072,0,0,0-.02-.016.09.09,0,0,0,.025-.025.1.1,0,0,0,.013-.051.083.083,0,0,0-.049-.083.149.149,0,0,0-.063-.011h-.154v.336h.057v-.138h.09a.086.086,0,0,1,.035.005.038.038,0,0,1,.019.036l0,.053a.2.2,0,0,0,0,.027.044.044,0,0,0,0,.012l0,0h.064v-.02Zm-.394-.14a.252.252,0,0,1,.073-.177.245.245,0,0,1,.345,0l0,0a.252.252,0,0,1-.175.428.244.244,0,0,1-.175-.073.253.253,0,0,1-.073-.177m.247.3a.294.294,0,0,0,.21-.089.3.3,0,0,0,0-.427.293.293,0,0,0-.21-.088.3.3,0,0,0-.21.515A.293.293,0,0,0,2480.058,3013.91Z" transform="translate(-2482.297 -3009.224)" fill="#190a28" fill-rule="evenodd"/>
        <path id="Path_23337" data-name="Path 23337" d="M2720.5,3040.03h-.051v-.348h-.116v-.049h.284v.049h-.116Zm.352-.092h0l.109-.3h.079v.4h-.053v-.332l-.12.331h-.032l-.12-.331v.331h-.05v-.4h.079Zm-1.029-3.333h-4.868v1.32s-.015.51.615.51h2.975a.838.838,0,0,1,.34.069.551.551,0,0,1,.353.529.582.582,0,0,1-.263.515.661.661,0,0,1-.364.106h-3.656v.37h4.076a.96.96,0,0,0,.926-.989.873.873,0,0,0-.537-.841,1.243,1.243,0,0,0-.524-.114h-2.949a.3.3,0,0,1-.141-.033.249.249,0,0,1-.132-.235v-.84h4.148Zm-10.994,3.047v.37h2.066a1.023,1.023,0,0,0,.675-.244.853.853,0,0,0,.3-.671v-1.574a.569.569,0,0,1,.212-.45.529.529,0,0,1,.333-.112h1.8v-.365h-2.145a.942.942,0,0,0-.926.994v1.47a.638.638,0,0,1-.094.342.5.5,0,0,1-.442.241Zm-4.77-3.047v.365h3.682a.692.692,0,0,1,.3.064.514.514,0,0,1,.31.5.508.508,0,0,1-.31.485.706.706,0,0,1-.3.064H2705a1.038,1.038,0,0,0-.467.106.9.9,0,0,0-.48.825v1.005h.709v-1a.518.518,0,0,1,.035-.19.571.571,0,0,1,.552-.391h2.754a1,1,0,0,0,.274-.037.859.859,0,0,0,.675-.868.9.9,0,0,0-.909-.925Z" transform="translate(-2703.932 -3036.487)" fill="#190a28"/>
      </g>
    </g>
  </g>
</svg>
