<?xml version="1.0" encoding="utf-8"?>
<!-- Generator: Adobe Illustrator 19.1.0, SVG Export Plug-In . SVG Version: 6.00 Build 0)  -->
<svg version="1.1" id="Layer_1" xmlns="http://www.w3.org/2000/svg" xmlns:xlink="http://www.w3.org/1999/xlink" x="0px" y="0px"
	 viewBox="0 0 60.5 20.2" style="enable-background:new 0 0 60.5 20.2;" xml:space="preserve">
<style type="text/css">
	.st0{fill:#FFFFFF;}
	.st1{fill:#034693;}
</style>
<g>
	<path class="st0" d="M29.8,18.4c1.1,1.1,2.6,1.8,4.3,1.8l26.4,0L54.8,3.1C54.1,1.3,52.2,0,50,0c-2.2,0-4,1.3-4.8,3.1l-1.9,5.6
		l0-8.4l-9.2,0c-1.7,0-3.2,0.7-4.3,1.7l0-1.7l-9.4,0c-1.8,0-3.4,0.7-4.5,1.9V0.3L7,0.3c-3.8,0-7,3-7,7c0,1.8,0.8,3.5,2,4.8H0v8.1
		l9,0c2.5,0,5-1.5,5.9-3.4l0-0.1c1,2,3.1,3.4,5.5,3.4h9.4V18.4z"/>
	<path class="st1" d="M1.3,18.9l7.6,0c3.1,0,5.6-2.5,5.6-5.6c0-3.1-2.5-5.6-5.6-5.6l-2,0c-0.1,0-0.3-0.1-0.3-0.3
		c0-0.2,0.1-0.3,0.3-0.3h7.6V4.7H6.9c-1.5,0-2.6,1.2-2.6,2.7c0,1.5,1.2,2.7,2.6,2.7l2,0c1.8,0,3.2,1.4,3.2,3.2
		c0,1.8-1.4,3.2-3.2,3.2H1.3L1.3,18.9z"/>
	<path class="st1" d="M1.3,15.9h7.6c1.5,0,2.7-1.2,2.7-2.7c0-1.5-1.2-2.7-2.7-2.7l-2,0c-1.8,0-3.2-1.4-3.2-3.2
		c0-1.8,1.4-3.2,3.2-3.2h7.6V1.7l-7.6,0c-3.1,0-5.6,2.5-5.6,5.6c0,3.1,2.5,5.6,5.6,5.6l2,0c0.2,0,0.3,0.1,0.3,0.3
		c0,0.2-0.1,0.3-0.3,0.3l-7.6,0L1.3,15.9z"/>
	<path class="st1" d="M20.3,16.5c-1.3,0-2.4-1-2.4-2.4V6.5c0-1.3,1.1-2.4,2.4-2.4l8.1,0V1.7l-8.1,0c-2.6,0-4.8,2.1-4.8,4.8v7.6
		c0,2.6,2.1,4.8,4.8,4.8l8.1,0v-2.4L20.3,16.5z"/>
	<path class="st1" d="M18.5,6.5c0-1,0.8-1.8,1.8-1.8h8.1v2.4h-7c-0.6,0-0.6,0.6-0.6,0.6h5.8V10h-8.2V6.5z"/>
	<path class="st1" d="M20.3,15.9c-1,0-1.8-0.8-1.8-1.8v-3.5h8.2l0,2.4h-5.8c0,0.6,0.6,0.6,0.6,0.6h6.9v2.4L20.3,15.9z"/>
	<path class="st1" d="M34.1,16.5c-1.3,0-2.4-1.1-2.4-2.4V6.5c0-1.3,1.1-2.4,2.4-2.4h7.8V1.7h-7.9c-2.6,0-4.8,2.1-4.8,4.8v7.6
		c0,2.6,2.1,4.8,4.8,4.8l7.8,0V7.6h-6.7V10h4.4v6.5L34.1,16.5z"/>
	<path class="st1" d="M32.3,14.1c0,1,0.8,1.8,1.8,1.8H39v-5.3h-3.8V13h1.4l0,0.6l-1.4,0c-0.3,0-0.6-0.3-0.6-0.6l0-5.3
		c0,0,0-0.6,0.6-0.6h6.7l0-2.4l-7.8,0c-1,0-1.8,0.8-1.8,1.8V14.1z"/>
	<path class="st1" d="M49.3,4.7c0.1-0.3,0.4-0.5,0.7-0.5c0.3,0,0.6,0.2,0.7,0.5l3.8,11.3H49l0-2.7h1.9L50,10.8l-2.7,8.1h-2.8
		L49.3,4.7z"/>
	<path class="st1" d="M55.3,16.5H49v2.4h9.6L53.6,4c-0.4-1.5-1.9-2.5-3.6-2.5c-1.7,0-3.2,1.1-3.6,2.5l-5,14.9h2.5l4.9-14.4
		C49,3.9,49.4,3.6,50,3.6c0.5,0,1,0.3,1.2,0.8L55.3,16.5z"/>
	<path class="st0" d="M57.2,3.7c0.5,0,1-0.2,1.3-0.5c0.4-0.3,0.6-0.8,0.6-1.3c0-0.5-0.2-1-0.6-1.3C58.2,0.2,57.7,0,57.2,0
		c-1,0-1.9,0.8-1.9,1.9c0,0.5,0.2,1,0.6,1.3C56.2,3.5,56.7,3.7,57.2,3.7 M55.6,1.9c0-0.4,0.2-0.8,0.5-1.1c0.3-0.3,0.7-0.5,1.1-0.5
		c0.4,0,0.8,0.2,1.1,0.5c0.3,0.3,0.5,0.7,0.5,1.1c0,0.9-0.7,1.6-1.6,1.6c-0.4,0-0.8-0.2-1.1-0.5C55.8,2.7,55.6,2.3,55.6,1.9"/>
	<path class="st0" d="M56.7,2v0.9h-0.3V0.8h0.8c0.3,0,0.5,0,0.6,0.1C58,1.1,58,1.2,58,1.4C58,1.9,57.7,2,57.5,2l0.6,0.9h-0.3L57.2,2
		H56.7z M56.7,1.8h0.5c0.1,0,0.2,0,0.3,0c0.2,0,0.3-0.2,0.3-0.3c0-0.1,0-0.2-0.1-0.3c-0.1-0.1-0.2-0.1-0.4-0.1h-0.5V1.8z"/>
</g>
</svg>
