<?xml version="1.0" encoding="utf-8"?>
<!-- Generator: Adobe Illustrator 19.1.0, SVG Export Plug-In . SVG Version: 6.00 Build 0)  -->
<svg version="1.1" id="Layer_1" xmlns="http://www.w3.org/2000/svg" xmlns:xlink="http://www.w3.org/1999/xlink" x="0px" y="0px"
	 viewBox="0 0 298.4 298.4" style="enable-background:new 0 0 298.4 298.4;" xml:space="preserve">
<style type="text/css">
	.st0{fill:#007BC0;}
	.st1{stroke:#000000;stroke-width:5.6693;}
	.st2{fill:#FFFFFF;}
	.st3{fill:none;stroke:#FFFFFF;stroke-width:5.8343;}
	.st4{fill:none;stroke:#FFFFFF;stroke-width:5.3881;}
</style>
<g>
	<text transform="matrix(1 0 0 1 911.6191 489.9379)" style="font-family:'Univers-Black'; font-size:19.8px;"> </text>
</g>
<circle class="st0" cx="149.2" cy="149.2" r="149.2"/>
<circle class="st1" cx="149.2" cy="149.2" r="128.4"/>
<g>
	<path class="st0" d="M138.7,164.1c-1.9-13.9-8.5-26.7-9.2-39.9c-0.6-14.9,2.4-25.5,7.5-34.3c5.5-9.5,14-18.2,19.9-23.7
		c-2.5-0.2-5.1-0.4-7.7-0.4c-46,0-83.3,37.3-83.3,83.3c0,30.7,16.6,57.5,41.3,71.9c5-3.8,8.4-7.1,8.4-7.1
		C136.1,197.2,140.8,179,138.7,164.1z"/>
	<path class="st0" d="M191.9,77.7c-8.7,6.5-14.6,15.2-14.6,15.2c-10.9,15-8.5,30.2-7.6,35.1c2.6,15,6.4,19.5,8.9,39.5
		c4.1,31.4-18.3,53.8-32.9,64.9c1.1,0,2.3,0.1,3.4,0.1c46,0,83.3-37.3,83.3-83.3C232.5,118.8,216.2,92.2,191.9,77.7z"/>
	<path class="st2" d="M178.7,167.5c-2.6-20-6.4-24.5-8.9-39.5c-0.9-5-3.3-20.2,7.6-35.1c0,0,5.9-8.7,14.6-15.2
		c-10.4-6.2-22.3-10.3-35.1-11.4c-5.9,5.5-14.3,14.2-19.9,23.7c-5.1,8.8-8.1,19.4-7.5,34.3c0.6,13.2,7.2,26,9.2,39.9
		c2.1,14.9-2.5,33.1-23,49.9c0,0-3.5,3.3-8.4,7.1c11.4,6.7,24.5,10.7,38.6,11.3C160.3,221.3,182.7,198.9,178.7,167.5z"/>
</g>
<g>
	<path class="st2" d="M37.5,141c-0.7-0.1-1.3,0.2-1.7,0.6c-0.4,0.4-0.6,1.1-0.7,2c-0.1,1.2,0.7,2.3,1.6,2.3c1.4,0.1,1.9-1.6,2.3-2.9
		c0.9-3.1,1.5-7.7,6.5-7.5c4,0.2,5.7,4.2,5.5,8.5c-0.2,4.4-1.6,8.2-6.7,8l0.2-5.2c1.8,0.1,2.8-1.2,2.9-3c0.1-1.2-0.5-2.8-1.8-2.8
		c-2.6-0.1-2.2,3.8-4.2,7.8c-0.9,1.9-2.7,2.7-4.7,2.6c-4.4-0.4-5.5-4.4-5.3-8.3c0.2-3.9,1.7-7.8,6.2-7.3L37.5,141z"/>
	<path class="st2" d="M51.6,132.3l-18.3-4.4l2-8.4c1.1-4.5,3.2-7.1,7.7-6c4.4,1.1,5.2,4.4,4.1,8.8l-0.8,3.3l6.5,1.6L51.6,132.3z
		 M43.4,122.2c0.4-2-0.3-3.1-1.6-3.4c-1.3-0.3-2.5,0.3-3,2.3l-0.6,2.6l4.7,1.1L43.4,122.2z"/>
	<path class="st2" d="M47.6,110.4c-5.6-2.7-7.3-7.4-4.6-13c2.7-5.6,7.4-7.2,13-4.6c5.6,2.7,7.3,7.4,4.6,13
		C57.9,111.5,53.2,113.1,47.6,110.4z M46.2,99c-1.5,3.2,1.1,5.3,3.8,6.5c2.5,1.2,5.8,2,7.3-1.2c1.5-3.2-1.1-5.3-3.6-6.5
		C51,96.5,47.8,95.8,46.2,99z"/>
	<path class="st2" d="M69.5,90.2l-3.2,4.1L51.4,82.9l5.3-6.9c1.9-2.5,5.1-5.3,8.3-2.8c2.2,1.7,2.1,4.3,0.7,6.6l0.1,0.1
		c2.1-2.6,3.8-2.1,6.3-0.5c1.3,0.9,2.7,1.5,4.1,2.1l-3.4,4.5c-1.2-0.6-2.4-1.3-3.5-2c-1.9-1.2-2.7-1.7-4.4,0.4l-1.2,1.5L69.5,90.2z
		 M62.1,82c1-1.3,1.8-2.7,0.3-3.9c-1.5-1.2-2.7,0-3.7,1.3L57.4,81l3.4,2.6L62.1,82z"/>
	<path class="st2" d="M71.1,65.5l-4.3,3.8l-2.4-2.7L77,55.4l2.4,2.7L75,62.1l10.1,11.3l-3.9,3.5L71.1,65.5z"/>
	<path class="st2" d="M93.3,51.4c-0.4-0.6-0.8-1-1.4-1.1c-0.6-0.1-1.3,0.1-2,0.5c-1,0.6-1.5,1.8-1,2.6c0.7,1.2,2.4,0.7,3.7,0.3
		c3.1-0.9,7.2-3.1,9.8,1.3c2.1,3.4-0.3,7-4,9.3c-3.7,2.3-7.7,3.2-10.4-1.2l4.5-2.7c0.9,1.5,2.5,1.7,4.1,0.7c1-0.6,2-2,1.4-3
		c-1.3-2.2-4.3,0.3-8.8,0.9c-2.1,0.3-3.8-0.7-4.8-2.5c-2.1-3.9,0.6-7,3.9-9c3.3-2,7.4-2.9,9.5,1.1L93.3,51.4z"/>
	<path class="st2" d="M117.6,54.9l-5.5-18l5-1.5l5.5,18L117.6,54.9z"/>
	<path class="st2" d="M124,33.3l7.2-1l8.1,13.1l0-0.1l-1.8-13.9l4.7-0.6l2.5,18.7l-7.2,0.9l-8.2-13.5l-0.1,0l1.9,14.3l-4.7,0.6
		L124,33.3z"/>
	<path class="st2" d="M153.8,34.9l-5.7-0.4l0.3-3.6l16.8,1.3l-0.3,3.6l-5.9-0.4l-1.1,15.1l-5.2-0.4L153.8,34.9z"/>
	<path class="st2" d="M166.2,51.4l4.8-18.2l13.9,3.6l-0.9,3.5l-8.8-2.3l-1,3.8l8.1,2.1l-0.9,3.5l-8.1-2.1l-1,3.9l8.8,2.3l-0.9,3.5
		L166.2,51.4z"/>
	<path class="st2" d="M187.9,58.5l-4.7-2.2l8.1-17l7.9,3.7c2.9,1.4,6.2,3.9,4.5,7.5c-1.2,2.5-3.8,3-6.3,2.1l0,0.1
		c3,1.5,2.8,3.3,1.9,6.1c-0.6,1.5-0.9,2.9-1.2,4.5l-5.1-2.4c0.3-1.3,0.7-2.6,1.2-3.8c0.8-2.1,1.1-3-1.3-4.2L191,52L187.9,58.5z
		 M194.4,49.6c1.5,0.7,3.1,1.2,3.9-0.5c0.8-1.7-0.5-2.6-2-3.4l-1.8-0.9l-1.9,3.9L194.4,49.6z"/>
	<path class="st2" d="M199.9,64.2l17.4-10.4l5,3.9l-5.6,19.4l-4.7-3.6l1.3-3.7l-6-4.7l-3.2,2.2L199.9,64.2z M214.5,66.2l2.9-7.7
		l-0.1,0l-6.8,4.6L214.5,66.2z"/>
	<path class="st2" d="M235.3,79c1.2-1.2,1.1-2.8-0.3-4.4c-2-2.3-5-0.4-7.1,1.5c-2.1,1.8-4.1,4.4-2.2,6.6c1.4,1.7,3,2,4.4,0.9
		l3.6,4.1c-3.5,3.2-7.8,0.8-10.8-2.6c-3.8-4.4-3.2-9.1,1.5-13.3c4.8-4.1,9.4-4,13.3,0.4c3,3.4,4.8,7.9,1.1,10.9L235.3,79z"/>
	<path class="st2" d="M245.8,89.8l-2.9-5L246,83l8.6,14.5l-3.1,1.9l-3-5.1l-13.1,7.7l-2.7-4.5L245.8,89.8z"/>
	<path class="st2" d="M238.9,109l17.3-7.4l2,4.8l-17.3,7.4L238.9,109z"/>
	<path class="st2" d="M264.2,125.7l1.3,5l-19.9-2.1l-1.5-6l16.6-11l1.4,5.6l-12.2,7.4l0,0.1L264.2,125.7z"/>
	<path class="st2" d="M247.2,137.8l18.8-0.9l0.7,14.3l-3.6,0.2l-0.4-9.1l-3.9,0.2l0.4,8.4l-3.6,0.2l-0.4-8.4l-4,0.2l0.4,9.1
		l-3.6,0.2L247.2,137.8z"/>
</g>
<g>
	<path class="st2" d="M45.5,196.7l8.6-8.9l2.2,3.9l-6.4,5.7l0,0l8.3-2.3l2.4,4.3l-6.3,5.8l0,0l8.3-2.2l1.9,3.5l-12.1,2.5l-2.4-4.3
		l6.1-5.9l0,0l-8.3,2L45.5,196.7z"/>
	<path class="st2" d="M58.4,217.9l6.7-10.3l2.9,3.5l-5.2,6.8l0,0l7.7-3.8l3.2,3.8l-5.1,6.9l0,0l7.7-3.8l2.5,3l-11.4,4.7l-3.2-3.8
		l4.9-6.9l0,0l-7.8,3.5L58.4,217.9z"/>
	<path class="st2" d="M75.5,236.6l4.3-11.5l3.6,2.7l-3.6,7.8l0,0l6.7-5.4l3.9,3l-3.4,7.8l0,0l6.7-5.3l3.1,2.4l-10.1,7.1l-3.9-3
		l3.3-7.8l0,0l-6.8,5.1L75.5,236.6z"/>
	<path class="st2" d="M94,249.4l1.7-3.1l3.7,2l-1.7,3.1L94,249.4z"/>
	<path class="st2" d="M111.2,248.4c0.1-0.4,0.2-0.7,0.1-1c-0.1-0.3-0.4-0.6-1-0.8c-0.6-0.2-1.1,0-1.4,0.6c-0.3,0.8,1.4,1.4,3.7,3.3
		c1.1,0.9,1.7,2.1,1,3.9c-1.1,2.9-4.2,2.6-6.7,1.6c-2.7-1.1-5.1-2.6-3.8-6l3.9,1.5c-0.2,0.3-0.2,0.7-0.1,1.1s0.4,0.7,0.8,0.9
		c0.8,0.3,1.5,0.2,1.8-0.5c0.8-1.9-6.2-3.3-4.6-7.3c1.1-2.7,4.2-2.3,6.4-1.5c2.6,1,4.7,2.6,3.7,5.8L111.2,248.4z"/>
	<path class="st2" d="M116.5,258.8l3-11.4l4.3,1.1l-3,11.4L116.5,258.8z M120,245.5l0.8-3l4.4,1.2l-0.8,3L120,245.5z"/>
	<path class="st2" d="M138.9,261.3c-0.3,2-0.7,3.3-2.3,4.4c-1.3,1-3.8,1.1-5.3,0.9c-2.6-0.3-5.9-1.4-5.5-4.8l4.1,0.6
		c-0.1,0.6,0.1,0.9,0.4,1.2c0.3,0.3,0.8,0.4,1.2,0.5c2,0.3,2.5-0.9,2.7-2.7l0.2-1.3l0,0c-0.9,1.2-2.6,1.6-4,1.4
		c-3.4-0.5-4.8-3.4-4.3-6.5c0.5-3.4,2.8-5.6,6.1-5.1c1.6,0.2,2.8,1.1,3.3,2.5l0,0l0.3-1.7l4.3,0.6L138.9,261.3z M133.3,252.6
		c-1.8-0.2-2.5,1.5-2.7,3c-0.2,1.4,0,3.3,1.8,3.6c1.8,0.2,2.5-1.5,2.7-3C135.3,254.7,135.2,252.8,133.3,252.6z"/>
	<path class="st2" d="M151,263.1c-0.1-0.4-0.1-0.8-0.1-1.6h0c-0.5,0.9-1.5,2-3.7,2c-2.8,0-4.3-1.5-4.3-3.9c0-2.9,2.6-4.1,6.5-4.1
		l1.4,0c0-1,0.2-2.5-1.6-2.4c-1.1,0.1-1.4,1.1-1.4,1.8l-4.2,0c0-1.7,0.8-2.6,2-3.2c1.2-0.6,2.7-0.7,4.1-0.8c2.4,0,5.3,0.9,5.3,3.6
		l0.1,6.1c0,0.5,0.1,1,0.3,2.4L151,263.1z M148.7,260.9c1.9,0,2.1-1.8,2.1-3.4c-0.9,0-1.8,0-2.4,0.3c-0.7,0.3-1.2,0.8-1.2,1.6
		C147.2,260.2,147.9,260.9,148.7,260.9z"/>
	<path class="st2" d="M163.1,252.4L163.1,252.4c0.6-1.8,2-2.6,3.7-3c1.4-0.3,3.1,0.2,3.9,1.5c0.5-1.5,2-2.6,3.7-3
		c2.5-0.5,4.6,0.8,5.1,3.4l1.4,7.8l-4.4,0.8l-1.3-6.8c-0.3-1.1-0.8-2.3-2.1-2c-2.2,0.4-1.5,2.7-1.4,2.9l1.2,6.7l-4.4,0.8l-1.3-6.8
		c-0.3-1.1-0.8-2.3-2.1-2c-2.2,0.4-1.5,2.7-1.4,2.9l1.2,6.7l-4.4,0.8l-1.6-8.6c-0.2-1-0.3-1.7-0.7-3l4.3-0.8L163.1,252.4z"/>
	<path class="st2" d="M187.8,251.2c0.5,1.4,1.4,2.5,2.9,1.9c1.2-0.5,1.7-1.3,1.4-2.4l3.8-1.5c0.4,1.5-0.1,2.9-0.9,3.9
		c-0.7,1-1.8,1.7-3.1,2.2c-4.4,1.7-6.9,0.5-8.6-3.8c-1.4-3.5,0.5-6.5,3.8-7.8c4.5-1.8,6.9,0.2,8.5,4.3L187.8,251.2z M190.8,247.4
		c-0.2-0.6-0.6-1.1-1.2-1.4c-0.5-0.3-1.1-0.4-1.7-0.1c-1.4,0.6-1.4,1.8-1,3.1L190.8,247.4z"/>
	<path class="st2" d="M203,240.5c-0.2-0.3-0.4-0.6-0.7-0.7c-0.3-0.1-0.7-0.1-1.3,0.2c-0.6,0.3-0.7,0.9-0.4,1.4
		c0.4,0.8,2-0.2,4.8-0.8c1.4-0.3,2.7,0,3.7,1.6c1.5,2.7-0.6,4.9-3,6.2c-2.5,1.4-5.3,2.3-7-0.8l3.7-2.1c0.1,0.3,0.4,0.6,0.8,0.8
		c0.4,0.1,0.8,0.2,1.2-0.1c0.8-0.4,1.1-1,0.8-1.7c-1-1.8-6.5,2.7-8.6-1c-1.4-2.5,0.9-4.8,2.9-5.9c2.4-1.4,5-2,6.8,0.7L203,240.5z"/>
	<path class="st2" d="M214.5,242.8l-2.1-2.9l3.4-2.5l2.1,2.9L214.5,242.8z"/>
	<path class="st2" d="M222.4,226.5c-0.4-0.4-0.8-0.7-1.2-0.8c-0.4-0.1-0.9,0.1-1.4,0.6c-1.2,1.1,0.4,3,1.2,3.9
		c0.8,0.9,2.5,2.6,3.7,1.5c1.1-1.1,0.4-2.1-0.3-2.9l3.3-3c1.1,1.2,1.4,2.6,1.2,4c-0.3,1.4-1.1,2.7-2.2,3.7c-3.3,3-6.2,2.8-9-0.2
		c-2.9-3.2-2.1-6.6,0.6-9c2.2-2,5-3.1,7.5-0.8L222.4,226.5z"/>
	<path class="st2" d="M237.8,211.8c3.4,2.7,2.9,6.4,0.5,9.3c-2.3,2.9-5.8,4.1-9.2,1.4c-3.4-2.7-2.9-6.4-0.5-9.3
		C230.9,210.3,234.4,209,237.8,211.8z M236.3,219.4c1.2-1.5-0.1-3-1.4-4.1c-1.3-1-3.1-2-4.3-0.5c-1.2,1.5,0.1,3,1.4,4.1
		C233.4,219.9,235.2,220.9,236.3,219.4z"/>
	<path class="st2" d="M238.8,202.9L238.8,202.9c-1-1.5-0.8-3.2,0-4.7c0.7-1.3,2.1-2.3,3.6-2.1c-0.9-1.4-0.8-3.2,0-4.8
		c1.2-2.2,3.5-3.1,5.8-1.9l7,3.7l-2.1,3.9l-6.1-3.2c-1-0.5-2.3-0.8-2.9,0.4c-1,2,1.2,2.8,1.4,2.9l6,3.2l-2.1,3.9l-6.1-3.2
		c-1-0.5-2.3-0.8-2.9,0.4c-1,2,1.2,2.8,1.4,2.9l6,3.2l-2.1,3.9l-7.7-4.1c-0.9-0.5-1.6-0.8-2.7-1.3l2.1-3.9L238.8,202.9z"/>
</g>
<circle class="st3" cx="149.2" cy="148.8" r="132.1"/>
<circle class="st4" cx="149.2" cy="148.8" r="84.1"/>
</svg>
