<svg xmlns="http://www.w3.org/2000/svg" width="39.578" height="40" viewBox="0 0 39.578 40">
  <g id="Group_9377" data-name="Group 9377" transform="translate(8506.78 -12163.274)">
    <path id="Path_23288" data-name="Path 23288" d="M1243.359,1153.244c0,10.929-7.421,19.947-18.35,19.947a19.789,19.789,0,0,1,0-39.577c10.929,0,18.35,8.7,18.35,19.631" transform="translate(-9712 11029.873)" fill="#190a28"/>
    <path id="Path_23304" data-name="Path 23304" d="M1205.945,1153.763l2.96,1.235c1.42.592,2.84,1.186,4.263,1.771a.557.557,0,0,1,.368.424,5.607,5.607,0,0,0,10.934-.214c.079-.415.08-.845.137-1.266a.5.5,0,0,1,.162-.315q3.188-2.311,6.39-4.6a.764.764,0,0,1,.39-.119,7.3,7.3,0,0,0,6.578-4.089,7.15,7.15,0,0,0-.39-7.621,7.054,7.054,0,0,0-7.4-3.3,7.177,7.177,0,0,0-5.967,5.2,14.557,14.557,0,0,0-.354,2.057,1.382,1.382,0,0,1-.177.531c-1.463,2.155-2.938,4.3-4.406,6.453a.412.412,0,0,1-.394.208,5.316,5.316,0,0,0-3,.837.458.458,0,0,1-.475.034q-5.029-2.1-10.066-4.193c-.291-.12-.291-.273-.265-.528a20.05,20.05,0,0,1,9.178-14.933,19.013,19.013,0,0,1,8.833-2.983,19.873,19.873,0,0,1,21.092,15.7,20.058,20.058,0,0,1-13.063,23.187,18.857,18.857,0,0,1-7.512,1.005,19.394,19.394,0,0,1-11.892-4.956,19.873,19.873,0,0,1-5.866-9.145c-.028-.087-.049-.176-.07-.264a.438.438,0,0,1,.016-.106Z" transform="translate(-9712 11034.999)" fill="#fff"/>
    <path id="Path_23305" data-name="Path 23305" d="M1753.731,1381.182a4.967,4.967,0,1,1-4.9-5.022A4.977,4.977,0,0,1,1753.731,1381.182Zm-1.209,0a3.753,3.753,0,1,0-3.795,3.78,3.774,3.774,0,0,0,3.795-3.78Z" transform="translate(-10229.263 10796.926)" fill="#fff"/>
    <path id="Path_23306" data-name="Path 23306" d="M1460.661,1716.045a4.122,4.122,0,0,1,5.2,2.176,4.246,4.246,0,0,1-2.1,5.656,4.145,4.145,0,0,1-5.446-1.989c.569.235,1.092.469,1.628.668a7.557,7.557,0,0,0,1.607.519,3.131,3.131,0,0,0,1.514-6.008c-.735-.313-1.474-.617-2.211-.927-.062-.026-.12-.06-.193-.1Z" transform="translate(-9955.079 10470.753)" fill="#fff"/>
  </g>
</svg>
