<svg xmlns="http://www.w3.org/2000/svg" width="52" height="52" viewBox="0 0 52 52">
  <g id="Group_4126" data-name="Group 4126" transform="translate(-1000.889 -1797)">
    <circle id="Ellipse_64" data-name="Ellipse 64" cx="26" cy="26" r="26" transform="translate(1000.889 1797)" fill="#fff"/>
    <g id="Nintendo_Switch_Logo__without_text_" data-name="Nintendo_Switch_Logo_(without_text)" transform="translate(1012.445 1808.555)">
      <path id="Path_3425" data-name="Path 3425" d="M39.306-516.835a7.467,7.467,0,0,0-5.923,5.444c-.263,1.011-.281,1.6-.251,9.447.018,7.2.024,7.371.144,7.927a7.5,7.5,0,0,0,5.821,5.839,26.588,26.588,0,0,0,4.134.126c3.35.024,3.7.018,3.787-.072s.1-1.244.1-14.334c0-9.7-.018-14.274-.06-14.358-.06-.108-.162-.114-3.667-.108A38.692,38.692,0,0,0,39.306-516.835Zm5.414,14.358v12.121l-2.435-.03a12.607,12.607,0,0,1-2.931-.15,5.075,5.075,0,0,1-3.757-3.913c-.132-.6-.132-15.489-.006-16.081a5.138,5.138,0,0,1,3.1-3.7c.79-.317,1.155-.353,3.715-.359l2.315-.006Z" transform="translate(-33.121 516.931)" fill="#190a28"/>
      <path id="Path_3426" data-name="Path 3426" d="M111.272-417.714a3.192,3.192,0,0,0-1.256.628,2.652,2.652,0,0,0-.891,2.226,1.882,1.882,0,0,0,.245.981,2.723,2.723,0,0,0,1.286,1.292,1.854,1.854,0,0,0,1.023.239,2.174,2.174,0,0,0,.957-.108,2.7,2.7,0,0,0,1.861-2.991A2.748,2.748,0,0,0,111.272-417.714Z" transform="translate(-104.573 423.703)" fill="#190a28"/>
      <path id="Path_3427" data-name="Path 3427" d="M315.042-516.958c-.024.018-.042,6.5-.042,14.412,0,13.048.006,14.37.1,14.406.161.06,4.8.036,5.378-.024a7.468,7.468,0,0,0,5.737-3.949,8.89,8.89,0,0,0,.449-1.047c.377-1.125.365-.826.365-9.423,0-6.862-.012-7.885-.1-8.322a7.428,7.428,0,0,0-6.09-6.006,23.392,23.392,0,0,0-3.147-.09C316.256-517,315.06-516.982,315.042-516.958Zm6.389,13.03a2.927,2.927,0,0,1,2.01,1.867,3.128,3.128,0,0,1-.006,1.9,2.954,2.954,0,0,1-2,1.854,2.946,2.946,0,0,1-3.524-2,3.431,3.431,0,0,1,.024-1.687A2.9,2.9,0,0,1,321.431-503.928Z" transform="translate(-298.136 517)" fill="#190a28"/>
    </g>
  </g>
</svg>
