<svg xmlns="http://www.w3.org/2000/svg" width="40.048" height="40" viewBox="0 0 40.048 40">
  <g id="Group_9379" data-name="Group 9379" transform="translate(6092.069 -12168.612)">
    <g id="Group_9372" data-name="Group 9372" transform="translate(-6092.069 12168.612)">
      <path id="Path_23286" data-name="Path 23286" d="M3662.095,1154.093a19.98,19.98,0,1,1-19.98-19.98,19.98,19.98,0,0,1,19.98,19.98" transform="translate(-3622.047 -1134.093)" fill="#190a28"/>
      <path id="Path_23307" data-name="Path 23307" d="M3637.926,1173.531a19.956,19.956,0,0,1-8.876-3.148c-2.244-1.463-2.751-2.066-2.751-3.267,0-2.413,2.653-6.64,7.193-11.457,2.577-2.737,6.168-5.943,6.556-5.856.755.169,6.792,6.056,9.052,8.828,3.573,4.381,5.215,7.97,4.38,9.57-.634,1.216-4.571,3.593-7.462,4.506a21.934,21.934,0,0,1-8.092.825m-14.657-8.924a20.734,20.734,0,0,1-3.261-9.752,15.6,15.6,0,0,1,.341-4.876,19.953,19.953,0,0,1,4.86-9.869c1-1.041,1.092-1.069,2.314-.655,1.482.5,3.066,1.6,5.525,3.819l1.436,1.3-.785.962c-3.637,4.465-7.476,10.8-8.921,14.715-.785,2.128-1.1,4.265-.762,5.155.228.6.018.378-.748-.8l0,0Zm32.735.487a9.717,9.717,0,0,0-.595-4.217c-1.182-3.608-5.136-10.32-8.766-14.883l-1.143-1.437,1.237-1.135a26.134,26.134,0,0,1,3.945-3.124,7.592,7.592,0,0,1,2.9-1.121c.361,0,1.634,1.325,2.661,2.764a20.934,20.934,0,0,1,3.354,7.755,25.8,25.8,0,0,1,.062,7.532,24.076,24.076,0,0,1-1.5,4.734,25.617,25.617,0,0,1-2.049,3.51q-.251.319-.112-.37l0-.007Zm-17.747-26.6a24.947,24.947,0,0,0-5.687-2.01,10.413,10.413,0,0,0-1.9-.107c-1.178.06-1.126,0,.763-.894a19.441,19.441,0,0,1,4.66-1.552,24,24,0,0,1,7.73-.011,21.555,21.555,0,0,1,6.041,2.249l.42.257-.962-.048a17.5,17.5,0,0,0-7.692,2.131,16.388,16.388,0,0,1-1.744.781c-.057-.011-.792-.37-1.636-.8h0Z" transform="translate(-3619.931 -1133.613)" fill="#fff"/>
    </g>
  </g>
</svg>
