<svg xmlns="http://www.w3.org/2000/svg" width="52" height="52" viewBox="0 0 52 52">
  <g id="Group_6089" data-name="Group 6089" transform="translate(-3174.566 932.666)">
    <circle id="Ellipse_53109" data-name="Ellipse 53109" cx="25.957" cy="25.957" r="25.957" transform="translate(3174.566 -932.58)" fill="#190a28"/>
    <g id="Group_6088" data-name="Group 6088" transform="translate(3174.566 -932.666)">
      <path id="Path_9832" data-name="Path 9832" d="M3498.882-531.048l-1.668,4.417h3.336Z" transform="translate(-3478.083 554.862)" fill="#fff"/>
      <path id="Path_9833" data-name="Path 9833" d="M3506.99-318.126h3.336l-1.668-4.417Z" transform="translate(-3487.28 358.719)" fill="#fff"/>
      <path id="Path_9834" data-name="Path 9834" d="M3377.2-325.044H3374.6v3.5h2.607a1.913,1.913,0,0,0,1.368-.449,1.715,1.715,0,0,0,.469-1.294,1.738,1.738,0,0,0-.469-1.3A1.9,1.9,0,0,0,3377.2-325.044Z" transform="translate(-3362.736 361.072)" fill="#fff"/>
      <path id="Path_9835" data-name="Path 9835" d="M3200.566-932.666a26,26,0,0,0-26,26,26,26,0,0,0,26,26,26,26,0,0,0,26-26A26,26,0,0,0,3200.566-932.666Zm6.267,4.8a.159.159,0,0,1,.04.03,8.925,8.925,0,0,1,2.646,6.354,8.911,8.911,0,0,1-1.831,5.424.039.039,0,0,1-.048.014.037.037,0,0,1-.01-.046c.682-2.11-2.807-7.226-4.609-9.371a.041.041,0,0,1-.012-.026.039.039,0,0,1,.015-.03C3205.755-928.229,3206.682-927.94,3206.833-927.862Zm-10.931-1.259a8.832,8.832,0,0,1,4.664-1.31,8.832,8.832,0,0,1,4.664,1.31.034.034,0,0,1,.015.044.035.035,0,0,1-.043.015c-1.734-.374-4.367,1.123-4.617,1.273a.037.037,0,0,1-.019.007.037.037,0,0,1-.019-.007c-.25-.15-2.883-1.647-4.617-1.273a.035.035,0,0,1-.043-.015A.034.034,0,0,1,3195.9-929.121Zm-1.643,1.289a.159.159,0,0,1,.04-.03c.151-.078,1.078-.366,3.809,2.35a.039.039,0,0,1,.015.03.041.041,0,0,1-.012.026c-1.8,2.145-5.292,7.261-4.609,9.371a.037.037,0,0,1-.01.046.039.039,0,0,1-.048-.014,8.911,8.911,0,0,1-1.831-5.424A8.925,8.925,0,0,1,3194.259-927.832Zm.272,17.533h1.667l3.767,9.648h-1.53l-.932-2.5h-4.276l-.932,2.5h-1.53Zm-12.372,8.467a4.587,4.587,0,0,1-.945-1.6,6.255,6.255,0,0,1-.315-2.041,6.271,6.271,0,0,1,.318-2.058,4.5,4.5,0,0,1,.956-1.6,4.07,4.07,0,0,1,1.478-1.037,5.042,5.042,0,0,1,1.91-.346,4.614,4.614,0,0,1,2.94.922,3.812,3.812,0,0,1,1.383,2.481l0,.016h-1.514l0-.011a2.477,2.477,0,0,0-.961-1.532,3,3,0,0,0-1.836-.565,2.842,2.842,0,0,0-2.286,1.008,4.036,4.036,0,0,0-.862,2.72,4.036,4.036,0,0,0,.861,2.72,2.923,2.923,0,0,0,2.313,1.008,3.043,3.043,0,0,0,2.112-.78,2.645,2.645,0,0,0,.9-1.948h-2.837v-1.258h4.217v5.081h-1.386v-1.263a3.483,3.483,0,0,1-1.31,1.1,4.183,4.183,0,0,1-1.817.376,4.815,4.815,0,0,1-1.873-.349A3.978,3.978,0,0,1,3182.159-901.832Zm4.267,9.99v3.553h-1.474v-9.648h4.108a3.43,3.43,0,0,1,2.442.821,2.939,2.939,0,0,1,.869,2.233,2.922,2.922,0,0,1-.869,2.219,3.431,3.431,0,0,1-2.442.821Zm12.588,3.553-.932-2.5h-4.276l-.932,2.5h-1.53l3.767-9.648h1.667l3.767,9.648Zm-4.342-26.45c-1.4-1.423,3.187-6.461,5.864-8.5a.056.056,0,0,1,.03-.015.054.054,0,0,1,.029.015c2.678,2.037,7.262,7.075,5.865,8.5a8.918,8.918,0,0,1-5.894,2.214A8.918,8.918,0,0,1,3194.672-914.739Zm13.018,25.893a4.419,4.419,0,0,1-2.758.773,4.606,4.606,0,0,1-2.975-.868,3.131,3.131,0,0,1-1.079-2.537v-.014h1.474v.014a2.028,2.028,0,0,0,.67,1.611,3,3,0,0,0,1.937.537,2.787,2.787,0,0,0,1.633-.409,1.372,1.372,0,0,0,.568-1.184,1.131,1.131,0,0,0-.467-.968,4.89,4.89,0,0,0-1.7-.612l-.824-.176a4.752,4.752,0,0,1-2.249-.976,2.4,2.4,0,0,1-.761-1.875,2.3,2.3,0,0,1,.924-1.909,4,4,0,0,1,2.495-.712,4.326,4.326,0,0,1,2.853.814,2.874,2.874,0,0,1,.985,2.24v.014h-1.459v-.013a1.829,1.829,0,0,0-.609-1.361,2.824,2.824,0,0,0-1.754-.436,2.5,2.5,0,0,0-1.437.349,1.14,1.14,0,0,0-.494.988,1.167,1.167,0,0,0,.44.988,4.122,4.122,0,0,0,1.643.619l.838.176a5.139,5.139,0,0,1,2.378,1.017,2.323,2.323,0,0,1,.727,1.794A2.546,2.546,0,0,1,3207.69-888.846Zm.8-17.476-2.178,5.67h-1.235l0-.009-2.2-5.661c-.262-.7-.5-1.356-.716-1.958v7.628h-1.42V-910.3h2.023l1.976,5.129c.4,1.039.723,1.939.973,2.676.293-.876.625-1.822.987-2.811l1.908-4.995h2.037v9.648h-1.42v-7.656C3209.038-907.77,3208.793-907.1,3208.491-906.322Zm7.781,17.476a4.419,4.419,0,0,1-2.758.773,4.606,4.606,0,0,1-2.975-.868,3.132,3.132,0,0,1-1.079-2.537v-.014h1.474v.014a2.03,2.03,0,0,0,.67,1.611,3,3,0,0,0,1.937.537,2.787,2.787,0,0,0,1.633-.409,1.373,1.373,0,0,0,.568-1.184,1.131,1.131,0,0,0-.467-.968,4.888,4.888,0,0,0-1.7-.612l-.824-.176a4.752,4.752,0,0,1-2.249-.976,2.4,2.4,0,0,1-.761-1.875,2.3,2.3,0,0,1,.924-1.909,4,4,0,0,1,2.495-.712,4.326,4.326,0,0,1,2.853.814,2.873,2.873,0,0,1,.984,2.24v.014h-1.459v-.013a1.829,1.829,0,0,0-.609-1.361,2.823,2.823,0,0,0-1.754-.436,2.5,2.5,0,0,0-1.437.349,1.14,1.14,0,0,0-.494.988,1.167,1.167,0,0,0,.44.988,4.119,4.119,0,0,0,1.643.619l.838.176a5.139,5.139,0,0,1,2.378,1.017,2.323,2.323,0,0,1,.727,1.794A2.546,2.546,0,0,1,3216.272-888.846Zm2.109-17.333v1.231h-4.792v2.971h5.417v1.325h-6.892V-910.3h6.892v1.325h-5.417v2.8Z" transform="translate(-3174.566 932.666)" fill="#fff"/>
    </g>
  </g>
</svg>
