<svg id="svg-white-YouTube_Icon" data-name="YouTube Icon" xmlns="http://www.w3.org/2000/svg" width="1021.4487" height="718.4229" viewBox="0 0 1021.4487 718.4229">
  <defs>
    <style>
      .cls-1 {
        fill: #ffffff;
      }
    </style>
  </defs>
  <g id="svg-youtube-white-Lozenge">
    <path class="cls-1" d="M1013.0234,156.2813S1003.042,85.8921,972.417,54.895c-38.84182-40.6836-82.37992-40.8852-102.34572-43.2666C727.13378,1.2959,512.72119,1.2959,512.72119,1.2959h-0.4439s-214.40819,0-357.35009,10.3325C134.96,14.0098,91.4375,14.2114,52.5815,54.895,21.9561,85.8921,11.9902,156.2813,11.9902,156.2813S1.7749,238.9404,1.7749,321.5996v77.4932c0,82.6582,10.2153,165.3174,10.2153,165.3174s9.9659,70.3896,40.5913,101.3867c38.856,40.6836,89.896,39.3974,112.6289,43.6611C246.92819,717.2939,512.5,719.7188,512.5,719.7188s214.63378-.3233,357.57128-10.6553c19.9658-2.3819,63.5039-2.583,102.34572-43.2666,30.625-30.9971,40.6064-101.3867,40.6064-101.3867s10.2002-82.6592,10.2002-165.3174V321.5996C1023.2236,238.9404,1013.0234,156.2813,1013.0234,156.2813ZM407.04689,493L407,206,683,350Z" transform="translate(-1.7749 -1.2959)"/>
  </g>
</svg>
